<?xml version="1.0" encoding="utf-8" standalone="no"?>
<!DOCTYPE svg PUBLIC "-//W3C//DTD SVG 1.1//EN"
  "http://www.w3.org/Graphics/SVG/1.1/DTD/svg11.dtd">
<!-- Created with matplotlib (https://matplotlib.org/) -->
<svg height="345.6pt" version="1.1" viewBox="0 0 460.8 345.6" width="460.8pt" xmlns="http://www.w3.org/2000/svg" xmlns:xlink="http://www.w3.org/1999/xlink">
 <defs>
  <style type="text/css">
*{stroke-linecap:butt;stroke-linejoin:round;}
  </style>
 </defs>
 <g id="figure_1">
  <g id="patch_1">
   <path d="M 0 345.6 
L 460.8 345.6 
L 460.8 0 
L 0 0 
z
" style="fill:#ffffff;"/>
  </g>
  <g id="axes_1">
   <g id="patch_2">
    <path d="M 79.084352 307.584 
L 393.235648 307.584 
L 393.235648 41.472 
L 79.084352 41.472 
z
" style="fill:#ffffff;"/>
   </g>
   <g id="PolyCollection_1">
    <path clip-path="url(#p936dac5d40)" d="M 166.155495 293.092094 
L 162.415762 293.27317 
L 159.755834 293.541193 
L 157.34078 293.63333 
L 164.623648 272.0449 
L 170.483034 292.700654 
z
" style="fill:#0000ff;fill-opacity:0.4;stroke:#000000;stroke-opacity:0.4;"/>
    <path clip-path="url(#p936dac5d40)" d="M 95.170573 284.715424 
L 93.502927 277.558445 
L 93.363957 272.972419 
L 93.568066 267.379124 
L 93.694373 258.363965 
L 104.544303 266.201807 
z
" style="fill:#0000ff;fill-opacity:0.4;stroke:#000000;stroke-opacity:0.4;"/>
    <path clip-path="url(#p936dac5d40)" d="M 116.016144 295.068725 
L 97.880497 292.428286 
L 95.170573 284.715424 
L 104.544303 266.201807 
L 108.80429 252.61845 
L 117.214262 263.550327 
z
" style="fill:#0000ff;fill-opacity:0.4;stroke:#000000;stroke-opacity:0.4;"/>
    <path clip-path="url(#p936dac5d40)" d="M 131.206796 295.488 
L 122.319864 295.308937 
L 116.016144 295.068725 
L 117.214262 263.550327 
L 122.115965 254.101168 
L 128.1116 266.041382 
z
" style="fill:#0000ff;fill-opacity:0.4;stroke:#000000;stroke-opacity:0.4;"/>
    <path clip-path="url(#p936dac5d40)" d="M 140.393724 294.836024 
L 134.429732 295.13821 
L 131.206796 295.488 
L 128.1116 266.041382 
L 133.005388 252.43968 
L 139.306435 260.581819 
z
" style="fill:#0000ff;fill-opacity:0.4;stroke:#000000;stroke-opacity:0.4;"/>
    <path clip-path="url(#p936dac5d40)" d="M 153.521386 293.904384 
L 145.425185 294.478953 
L 140.393724 294.836024 
L 139.306435 260.581819 
L 146.237498 255.557022 
L 153.825271 263.750656 
z
" style="fill:#0000ff;fill-opacity:0.4;stroke:#000000;stroke-opacity:0.4;"/>
    <path clip-path="url(#p936dac5d40)" d="M 164.623648 272.0449 
L 157.34078 293.63333 
L 153.521386 293.904384 
L 153.825271 263.750656 
L 157.006772 254.954067 
L 162.614034 264.407887 
z
" style="fill:#0000ff;fill-opacity:0.4;stroke:#000000;stroke-opacity:0.4;"/>
    <path clip-path="url(#p936dac5d40)" d="M 175.338448 292.356076 
L 170.483034 292.700654 
L 164.623648 272.0449 
L 162.614034 264.407887 
L 169.512168 251.383968 
L 174.376406 263.702728 
z
" style="fill:#0000ff;fill-opacity:0.4;stroke:#000000;stroke-opacity:0.4;"/>
    <path clip-path="url(#p936dac5d40)" d="M 192.436961 290.787929 
L 181.414078 291.924903 
L 175.338448 292.356076 
L 174.376406 263.702728 
L 180.738495 251.509561 
L 186.886083 265.874884 
z
" style="fill:#0000ff;fill-opacity:0.4;stroke:#000000;stroke-opacity:0.4;"/>
    <path clip-path="url(#p936dac5d40)" d="M 202.396935 289.127933 
L 197.142215 290.00372 
L 192.436961 290.787929 
L 186.886083 265.874884 
L 195.422736 256.315993 
L 197.680215 265.127196 
z
" style="fill:#0000ff;fill-opacity:0.4;stroke:#000000;stroke-opacity:0.4;"/>
    <path clip-path="url(#p936dac5d40)" d="M 214.836269 287.054711 
L 206.742815 288.657242 
L 202.396935 289.127933 
L 197.680215 265.127196 
L 203.921039 252.543587 
L 212.787709 261.655253 
z
" style="fill:#0000ff;fill-opacity:0.4;stroke:#000000;stroke-opacity:0.4;"/>
    <path clip-path="url(#p936dac5d40)" d="M 224.542773 285.436961 
L 217.980741 286.530632 
L 214.836269 287.054711 
L 212.787709 261.655253 
L 216.277653 251.967826 
L 224.520542 258.669778 
z
" style="fill:#0000ff;fill-opacity:0.4;stroke:#000000;stroke-opacity:0.4;"/>
    <path clip-path="url(#p936dac5d40)" d="M 236.454485 283.451675 
L 230.551442 284.435516 
L 224.542773 285.436961 
L 224.520542 258.669778 
L 227.234743 250.48505 
L 234.74983 264.770822 
z
" style="fill:#0000ff;fill-opacity:0.4;stroke:#000000;stroke-opacity:0.4;"/>
    <path clip-path="url(#p936dac5d40)" d="M 247.525098 280.238508 
L 239.923824 282.538894 
L 236.454485 283.451675 
L 234.74983 264.770822 
L 242.321454 250.426223 
L 246.322439 257.675467 
z
" style="fill:#0000ff;fill-opacity:0.4;stroke:#000000;stroke-opacity:0.4;"/>
    <path clip-path="url(#p936dac5d40)" d="M 259.102157 276.734925 
L 254.022708 278.272126 
L 247.525098 280.238508 
L 246.322439 257.675467 
L 253.283303 255.313748 
L 258.92995 263.396638 
z
" style="fill:#0000ff;fill-opacity:0.4;stroke:#000000;stroke-opacity:0.4;"/>
    <path clip-path="url(#p936dac5d40)" d="M 269.970792 273.445733 
L 264.832499 275.000742 
L 259.102157 276.734925 
L 258.92995 263.396638 
L 263.569406 257.645321 
L 270.21676 262.404176 
z
" style="fill:#0000ff;fill-opacity:0.4;stroke:#000000;stroke-opacity:0.4;"/>
    <path clip-path="url(#p936dac5d40)" d="M 280.531945 270.249594 
L 275.983494 271.626099 
L 269.970792 273.445733 
L 270.21676 262.404176 
L 275.690827 254.714765 
L 284.864721 268.938359 
z
" style="fill:#0000ff;fill-opacity:0.4;stroke:#000000;stroke-opacity:0.4;"/>
    <path clip-path="url(#p936dac5d40)" d="M 108.80429 252.61845 
L 104.544303 266.201807 
L 93.694373 258.363965 
L 93.855901 246.83494 
L 101.991542 239.051613 
L 108.095071 246.098613 
z
" style="fill:#0000ff;fill-opacity:0.4;stroke:#000000;stroke-opacity:0.4;"/>
    <path clip-path="url(#p936dac5d40)" d="M 122.115965 254.101168 
L 117.214262 263.550327 
L 108.80429 252.61845 
L 108.095071 246.098613 
L 114.234226 233.08689 
L 123.344085 238.261808 
z
" style="fill:#0000ff;fill-opacity:0.4;stroke:#000000;stroke-opacity:0.4;"/>
    <path clip-path="url(#p936dac5d40)" d="M 133.005388 252.43968 
L 128.1116 266.041382 
L 122.115965 254.101168 
L 123.344085 238.261808 
L 128.328372 235.461596 
L 132.535784 245.937028 
z
" style="fill:#0000ff;fill-opacity:0.4;stroke:#000000;stroke-opacity:0.4;"/>
    <path clip-path="url(#p936dac5d40)" d="M 146.237498 255.557022 
L 139.306435 260.581819 
L 133.005388 252.43968 
L 132.535784 245.937028 
L 140.259875 233.48032 
L 143.428205 244.206751 
z
" style="fill:#0000ff;fill-opacity:0.4;stroke:#000000;stroke-opacity:0.4;"/>
    <path clip-path="url(#p936dac5d40)" d="M 157.006772 254.954067 
L 153.825271 263.750656 
L 146.237498 255.557022 
L 143.428205 244.206751 
L 152.981085 234.659555 
L 158.681889 245.030573 
z
" style="fill:#0000ff;fill-opacity:0.4;stroke:#000000;stroke-opacity:0.4;"/>
    <path clip-path="url(#p936dac5d40)" d="M 169.512168 251.383968 
L 162.614034 264.407887 
L 157.006772 254.954067 
L 158.681889 245.030573 
L 161.79297 235.564783 
L 167.772714 245.543546 
z
" style="fill:#0000ff;fill-opacity:0.4;stroke:#000000;stroke-opacity:0.4;"/>
    <path clip-path="url(#p936dac5d40)" d="M 180.738495 251.509561 
L 174.376406 263.702728 
L 169.512168 251.383968 
L 167.772714 245.543546 
L 175.297918 235.583988 
L 180.556825 237.768761 
z
" style="fill:#0000ff;fill-opacity:0.4;stroke:#000000;stroke-opacity:0.4;"/>
    <path clip-path="url(#p936dac5d40)" d="M 195.422736 256.315993 
L 186.886083 265.874884 
L 180.738495 251.509561 
L 180.556825 237.768761 
L 187.140208 230.796869 
L 193.194619 237.754521 
z
" style="fill:#0000ff;fill-opacity:0.4;stroke:#000000;stroke-opacity:0.4;"/>
    <path clip-path="url(#p936dac5d40)" d="M 203.921039 252.543587 
L 197.680215 265.127196 
L 195.422736 256.315993 
L 193.194619 237.754521 
L 200.686002 236.254496 
L 206.70005 240.948214 
z
" style="fill:#0000ff;fill-opacity:0.4;stroke:#000000;stroke-opacity:0.4;"/>
    <path clip-path="url(#p936dac5d40)" d="M 216.277653 251.967826 
L 212.787709 261.655253 
L 203.921039 252.543587 
L 206.70005 240.948214 
L 212.080334 237.658404 
L 217.93064 240.972649 
z
" style="fill:#0000ff;fill-opacity:0.4;stroke:#000000;stroke-opacity:0.4;"/>
    <path clip-path="url(#p936dac5d40)" d="M 227.234743 250.48505 
L 224.520542 258.669778 
L 216.277653 251.967826 
L 217.93064 240.972649 
L 221.386596 234.120827 
L 229.745972 243.278055 
z
" style="fill:#0000ff;fill-opacity:0.4;stroke:#000000;stroke-opacity:0.4;"/>
    <path clip-path="url(#p936dac5d40)" d="M 242.321454 250.426223 
L 234.74983 264.770822 
L 227.234743 250.48505 
L 229.745972 243.278055 
L 232.719091 229.759737 
L 241.551243 238.120922 
z
" style="fill:#0000ff;fill-opacity:0.4;stroke:#000000;stroke-opacity:0.4;"/>
    <path clip-path="url(#p936dac5d40)" d="M 253.283303 255.313748 
L 246.322439 257.675467 
L 242.321454 250.426223 
L 241.551243 238.120922 
L 248.574967 230.257095 
L 251.99145 236.226968 
z
" style="fill:#0000ff;fill-opacity:0.4;stroke:#000000;stroke-opacity:0.4;"/>
    <path clip-path="url(#p936dac5d40)" d="M 263.569406 257.645321 
L 258.92995 263.396638 
L 253.283303 255.313748 
L 251.99145 236.226968 
L 259.840668 229.761892 
L 265.518284 237.152266 
z
" style="fill:#0000ff;fill-opacity:0.4;stroke:#000000;stroke-opacity:0.4;"/>
    <path clip-path="url(#p936dac5d40)" d="M 275.690827 254.714765 
L 270.21676 262.404176 
L 263.569406 257.645321 
L 265.518284 237.152266 
L 272.48668 236.05946 
L 275.585497 241.943201 
z
" style="fill:#0000ff;fill-opacity:0.4;stroke:#000000;stroke-opacity:0.4;"/>
    <path clip-path="url(#p936dac5d40)" d="M 291.809173 266.836749 
L 284.864721 268.938359 
L 275.690827 254.714765 
L 275.585497 241.943201 
L 281.060876 230.551865 
L 288.725334 241.060436 
z
" style="fill:#0000ff;fill-opacity:0.4;stroke:#000000;stroke-opacity:0.4;"/>
    <path clip-path="url(#p936dac5d40)" d="M 306.226426 260.329977 
L 298.417114 264.371638 
L 291.809173 266.836749 
L 288.725334 241.060436 
L 295.780231 233.450549 
L 299.001467 241.252314 
z
" style="fill:#0000ff;fill-opacity:0.4;stroke:#000000;stroke-opacity:0.4;"/>
    <path clip-path="url(#p936dac5d40)" d="M 312.149546 257.264502 
L 305.602658 260.652804 
L 306.226426 260.329977 
L 299.001467 241.252314 
L 306.414792 234.10159 
L 312.479307 235.808205 
z
" style="fill:#0000ff;fill-opacity:0.4;stroke:#000000;stroke-opacity:0.4;"/>
    <path clip-path="url(#p936dac5d40)" d="M 323.987274 251.137959 
L 314.874463 255.854238 
L 312.149546 257.264502 
L 312.479307 235.808205 
L 316.66167 230.628621 
L 328.712769 248.692308 
z
" style="fill:#0000ff;fill-opacity:0.4;stroke:#000000;stroke-opacity:0.4;"/>
    <path clip-path="url(#p936dac5d40)" d="M 101.991542 239.051613 
L 93.855901 246.83494 
L 94.041158 233.612221 
L 93.893712 223.717223 
L 94.279391 216.608332 
L 102.453442 219.192374 
z
" style="fill:#0000ff;fill-opacity:0.4;stroke:#000000;stroke-opacity:0.4;"/>
    <path clip-path="url(#p936dac5d40)" d="M 114.234226 233.08689 
L 108.095071 246.098613 
L 101.991542 239.051613 
L 102.453442 219.192374 
L 109.664332 218.95054 
L 113.642686 218.522136 
z
" style="fill:#0000ff;fill-opacity:0.4;stroke:#000000;stroke-opacity:0.4;"/>
    <path clip-path="url(#p936dac5d40)" d="M 128.328372 235.461596 
L 123.344085 238.261808 
L 114.234226 233.08689 
L 113.642686 218.522136 
L 123.085576 215.380823 
L 126.730003 220.04031 
z
" style="fill:#0000ff;fill-opacity:0.4;stroke:#000000;stroke-opacity:0.4;"/>
    <path clip-path="url(#p936dac5d40)" d="M 140.259875 233.48032 
L 132.535784 245.937028 
L 128.328372 235.461596 
L 126.730003 220.04031 
L 133.992395 216.082788 
L 138.775268 221.904499 
z
" style="fill:#0000ff;fill-opacity:0.4;stroke:#000000;stroke-opacity:0.4;"/>
    <path clip-path="url(#p936dac5d40)" d="M 152.981085 234.659555 
L 143.428205 244.206751 
L 140.259875 233.48032 
L 138.775268 221.904499 
L 143.401086 212.070722 
L 150.291329 219.796953 
z
" style="fill:#0000ff;fill-opacity:0.4;stroke:#000000;stroke-opacity:0.4;"/>
    <path clip-path="url(#p936dac5d40)" d="M 161.79297 235.564783 
L 158.681889 245.030573 
L 152.981085 234.659555 
L 150.291329 219.796953 
L 156.881586 211.286288 
L 163.020986 221.379868 
z
" style="fill:#0000ff;fill-opacity:0.4;stroke:#000000;stroke-opacity:0.4;"/>
    <path clip-path="url(#p936dac5d40)" d="M 175.297918 235.583988 
L 167.772714 245.543546 
L 161.79297 235.564783 
L 163.020986 221.379868 
L 170.808636 213.956606 
L 174.4539 222.462579 
z
" style="fill:#0000ff;fill-opacity:0.4;stroke:#000000;stroke-opacity:0.4;"/>
    <path clip-path="url(#p936dac5d40)" d="M 187.140208 230.796869 
L 180.556825 237.768761 
L 175.297918 235.583988 
L 174.4539 222.462579 
L 180.00438 209.8344 
L 187.770453 223.671833 
z
" style="fill:#0000ff;fill-opacity:0.4;stroke:#000000;stroke-opacity:0.4;"/>
    <path clip-path="url(#p936dac5d40)" d="M 200.686002 236.254496 
L 193.194619 237.754521 
L 187.140208 230.796869 
L 187.770453 223.671833 
L 190.988242 212.378808 
L 197.427113 223.560189 
z
" style="fill:#0000ff;fill-opacity:0.4;stroke:#000000;stroke-opacity:0.4;"/>
    <path clip-path="url(#p936dac5d40)" d="M 212.080334 237.658404 
L 206.70005 240.948214 
L 200.686002 236.254496 
L 197.427113 223.560189 
L 206.488555 213.348039 
L 209.647678 223.198171 
z
" style="fill:#0000ff;fill-opacity:0.4;stroke:#000000;stroke-opacity:0.4;"/>
    <path clip-path="url(#p936dac5d40)" d="M 221.386596 234.120827 
L 217.93064 240.972649 
L 212.080334 237.658404 
L 209.647678 223.198171 
L 215.200685 216.6352 
L 222.267013 222.129822 
z
" style="fill:#0000ff;fill-opacity:0.4;stroke:#000000;stroke-opacity:0.4;"/>
    <path clip-path="url(#p936dac5d40)" d="M 232.719091 229.759737 
L 229.745972 243.278055 
L 221.386596 234.120827 
L 222.267013 222.129822 
L 229.597871 210.109577 
L 232.490843 219.617513 
z
" style="fill:#0000ff;fill-opacity:0.4;stroke:#000000;stroke-opacity:0.4;"/>
    <path clip-path="url(#p936dac5d40)" d="M 248.574967 230.257095 
L 241.551243 238.120922 
L 232.719091 229.759737 
L 232.490843 219.617513 
L 240.149331 213.402145 
L 247.501346 215.539715 
z
" style="fill:#0000ff;fill-opacity:0.4;stroke:#000000;stroke-opacity:0.4;"/>
    <path clip-path="url(#p936dac5d40)" d="M 259.840668 229.761892 
L 251.99145 236.226968 
L 248.574967 230.257095 
L 247.501346 215.539715 
L 252.938393 211.969839 
L 257.057766 222.762479 
z
" style="fill:#0000ff;fill-opacity:0.4;stroke:#000000;stroke-opacity:0.4;"/>
    <path clip-path="url(#p936dac5d40)" d="M 272.48668 236.05946 
L 265.518284 237.152266 
L 259.840668 229.761892 
L 257.057766 222.762479 
L 263.530886 208.332178 
L 268.354768 217.014864 
z
" style="fill:#0000ff;fill-opacity:0.4;stroke:#000000;stroke-opacity:0.4;"/>
    <path clip-path="url(#p936dac5d40)" d="M 281.060876 230.551865 
L 275.585497 241.943201 
L 272.48668 236.05946 
L 268.354768 217.014864 
L 277.653051 210.1724 
L 283.241257 218.089939 
z
" style="fill:#0000ff;fill-opacity:0.4;stroke:#000000;stroke-opacity:0.4;"/>
    <path clip-path="url(#p936dac5d40)" d="M 295.780231 233.450549 
L 288.725334 241.060436 
L 281.060876 230.551865 
L 283.241257 218.089939 
L 286.36996 215.019967 
L 294.854836 214.730127 
z
" style="fill:#0000ff;fill-opacity:0.4;stroke:#000000;stroke-opacity:0.4;"/>
    <path clip-path="url(#p936dac5d40)" d="M 306.414792 234.10159 
L 299.001467 241.252314 
L 295.780231 233.450549 
L 294.854836 214.730127 
L 299.792247 208.283565 
L 307.231836 217.982378 
z
" style="fill:#0000ff;fill-opacity:0.4;stroke:#000000;stroke-opacity:0.4;"/>
    <path clip-path="url(#p936dac5d40)" d="M 316.66167 230.628621 
L 312.479307 235.808205 
L 306.414792 234.10159 
L 307.231836 217.982378 
L 312.633185 215.404461 
L 317.389818 219.460476 
z
" style="fill:#0000ff;fill-opacity:0.4;stroke:#000000;stroke-opacity:0.4;"/>
    <path clip-path="url(#p936dac5d40)" d="M 336.645398 244.586825 
L 328.712769 248.692308 
L 316.66167 230.628621 
L 317.389818 219.460476 
L 325.554333 211.585787 
L 327.889016 215.511019 
z
" style="fill:#0000ff;fill-opacity:0.4;stroke:#000000;stroke-opacity:0.4;"/>
    <path clip-path="url(#p936dac5d40)" d="M 347.096466 237.335835 
L 341.703268 241.551161 
L 336.645398 244.586825 
L 327.889016 215.511019 
L 336.507585 207.353022 
L 340.949699 220.202953 
z
" style="fill:#0000ff;fill-opacity:0.4;stroke:#000000;stroke-opacity:0.4;"/>
    <path clip-path="url(#p936dac5d40)" d="M 355.710572 230.527912 
L 350.478233 234.773258 
L 347.096466 237.335835 
L 340.949699 220.202953 
L 348.033612 214.270498 
L 358.271647 228.503837 
z
" style="fill:#0000ff;fill-opacity:0.4;stroke:#000000;stroke-opacity:0.4;"/>
    <path clip-path="url(#p936dac5d40)" d="M 109.664332 218.95054 
L 102.453442 219.192374 
L 94.279391 216.608332 
L 94.485015 204.943345 
L 94.54815 197.425667 
L 110.092995 203.568274 
z
" style="fill:#0000ff;fill-opacity:0.4;stroke:#000000;stroke-opacity:0.4;"/>
    <path clip-path="url(#p936dac5d40)" d="M 123.085576 215.380823 
L 113.642686 218.522136 
L 109.664332 218.95054 
L 110.092995 203.568274 
L 114.254586 196.159332 
L 121.311191 204.096709 
z
" style="fill:#0000ff;fill-opacity:0.4;stroke:#000000;stroke-opacity:0.4;"/>
    <path clip-path="url(#p936dac5d40)" d="M 133.992395 216.082788 
L 126.730003 220.04031 
L 123.085576 215.380823 
L 121.311191 204.096709 
L 125.946712 193.663942 
L 131.432482 199.983586 
z
" style="fill:#0000ff;fill-opacity:0.4;stroke:#000000;stroke-opacity:0.4;"/>
    <path clip-path="url(#p936dac5d40)" d="M 143.401086 212.070722 
L 138.775268 221.904499 
L 133.992395 216.082788 
L 131.432482 199.983586 
L 139.117598 194.603682 
L 144.724479 203.819409 
z
" style="fill:#0000ff;fill-opacity:0.4;stroke:#000000;stroke-opacity:0.4;"/>
    <path clip-path="url(#p936dac5d40)" d="M 156.881586 211.286288 
L 150.291329 219.796953 
L 143.401086 212.070722 
L 144.724479 203.819409 
L 150.770963 190.565562 
L 157.729649 203.142855 
z
" style="fill:#0000ff;fill-opacity:0.4;stroke:#000000;stroke-opacity:0.4;"/>
    <path clip-path="url(#p936dac5d40)" d="M 170.808636 213.956606 
L 163.020986 221.379868 
L 156.881586 211.286288 
L 157.729649 203.142855 
L 164.077308 195.589926 
L 169.696793 197.732448 
z
" style="fill:#0000ff;fill-opacity:0.4;stroke:#000000;stroke-opacity:0.4;"/>
    <path clip-path="url(#p936dac5d40)" d="M 180.00438 209.8344 
L 174.4539 222.462579 
L 170.808636 213.956606 
L 169.696793 197.732448 
L 172.69841 192.010289 
L 181.87526 196.284267 
z
" style="fill:#0000ff;fill-opacity:0.4;stroke:#000000;stroke-opacity:0.4;"/>
    <path clip-path="url(#p936dac5d40)" d="M 190.988242 212.378808 
L 187.770453 223.671833 
L 180.00438 209.8344 
L 181.87526 196.284267 
L 184.727751 189.153976 
L 193.587443 201.828256 
z
" style="fill:#0000ff;fill-opacity:0.4;stroke:#000000;stroke-opacity:0.4;"/>
    <path clip-path="url(#p936dac5d40)" d="M 206.488555 213.348039 
L 197.427113 223.560189 
L 190.988242 212.378808 
L 193.587443 201.828256 
L 198.359889 190.776879 
L 202.426849 199.171109 
z
" style="fill:#0000ff;fill-opacity:0.4;stroke:#000000;stroke-opacity:0.4;"/>
    <path clip-path="url(#p936dac5d40)" d="M 215.200685 216.6352 
L 209.647678 223.198171 
L 206.488555 213.348039 
L 202.426849 199.171109 
L 209.48615 189.997066 
L 215.55486 200.892889 
z
" style="fill:#0000ff;fill-opacity:0.4;stroke:#000000;stroke-opacity:0.4;"/>
    <path clip-path="url(#p936dac5d40)" d="M 229.597871 210.109577 
L 222.267013 222.129822 
L 215.200685 216.6352 
L 215.55486 200.892889 
L 222.375588 195.705976 
L 227.734597 195.9299 
z
" style="fill:#0000ff;fill-opacity:0.4;stroke:#000000;stroke-opacity:0.4;"/>
    <path clip-path="url(#p936dac5d40)" d="M 240.149331 213.402145 
L 232.490843 219.617513 
L 229.597871 210.109577 
L 227.734597 195.9299 
L 232.195294 189.0483 
L 240.378246 198.316318 
z
" style="fill:#0000ff;fill-opacity:0.4;stroke:#000000;stroke-opacity:0.4;"/>
    <path clip-path="url(#p936dac5d40)" d="M 252.938393 211.969839 
L 247.501346 215.539715 
L 240.149331 213.402145 
L 240.378246 198.316318 
L 244.942672 192.814708 
L 252.300101 195.49042 
z
" style="fill:#0000ff;fill-opacity:0.4;stroke:#000000;stroke-opacity:0.4;"/>
    <path clip-path="url(#p936dac5d40)" d="M 263.530886 208.332178 
L 257.057766 222.762479 
L 252.938393 211.969839 
L 252.300101 195.49042 
L 257.047714 188.42448 
L 264.703852 198.06119 
z
" style="fill:#0000ff;fill-opacity:0.4;stroke:#000000;stroke-opacity:0.4;"/>
    <path clip-path="url(#p936dac5d40)" d="M 277.653051 210.1724 
L 268.354768 217.014864 
L 263.530886 208.332178 
L 264.703852 198.06119 
L 268.298487 189.151999 
L 276.277898 194.397723 
z
" style="fill:#0000ff;fill-opacity:0.4;stroke:#000000;stroke-opacity:0.4;"/>
    <path clip-path="url(#p936dac5d40)" d="M 286.36996 215.019967 
L 283.241257 218.089939 
L 277.653051 210.1724 
L 276.277898 194.397723 
L 283.223044 192.409672 
L 288.816568 201.504936 
z
" style="fill:#0000ff;fill-opacity:0.4;stroke:#000000;stroke-opacity:0.4;"/>
    <path clip-path="url(#p936dac5d40)" d="M 299.792247 208.283565 
L 294.854836 214.730127 
L 286.36996 215.019967 
L 288.816568 201.504936 
L 291.610587 189.607045 
L 298.260462 198.556853 
z
" style="fill:#0000ff;fill-opacity:0.4;stroke:#000000;stroke-opacity:0.4;"/>
    <path clip-path="url(#p936dac5d40)" d="M 312.633185 215.404461 
L 307.231836 217.982378 
L 299.792247 208.283565 
L 298.260462 198.556853 
L 306.814982 191.657565 
L 310.915864 195.550193 
z
" style="fill:#0000ff;fill-opacity:0.4;stroke:#000000;stroke-opacity:0.4;"/>
    <path clip-path="url(#p936dac5d40)" d="M 325.554333 211.585787 
L 317.389818 219.460476 
L 312.633185 215.404461 
L 310.915864 195.550193 
L 316.974025 188.168775 
L 323.866131 200.266393 
z
" style="fill:#0000ff;fill-opacity:0.4;stroke:#000000;stroke-opacity:0.4;"/>
    <path clip-path="url(#p936dac5d40)" d="M 336.507585 207.353022 
L 327.889016 215.511019 
L 325.554333 211.585787 
L 323.866131 200.266393 
L 327.677356 193.384617 
L 334.659195 199.64815 
z
" style="fill:#0000ff;fill-opacity:0.4;stroke:#000000;stroke-opacity:0.4;"/>
    <path clip-path="url(#p936dac5d40)" d="M 348.033612 214.270498 
L 340.949699 220.202953 
L 336.507585 207.353022 
L 334.659195 199.64815 
L 341.793241 189.697748 
L 345.620007 195.898187 
z
" style="fill:#0000ff;fill-opacity:0.4;stroke:#000000;stroke-opacity:0.4;"/>
    <path clip-path="url(#p936dac5d40)" d="M 364.771781 223.352798 
L 358.271647 228.503837 
L 348.033612 214.270498 
L 345.620007 195.898187 
L 354.471033 193.213097 
L 357.759818 197.244849 
z
" style="fill:#0000ff;fill-opacity:0.4;stroke:#000000;stroke-opacity:0.4;"/>
    <path clip-path="url(#p936dac5d40)" d="M 369.649679 209.084946 
L 366.661966 217.804189 
L 364.771781 223.352798 
L 357.759818 197.244849 
L 364.51038 191.664798 
L 372.791872 200.167151 
z
" style="fill:#0000ff;fill-opacity:0.4;stroke:#000000;stroke-opacity:0.4;"/>
    <path clip-path="url(#p936dac5d40)" d="M 114.254586 196.159332 
L 110.092995 203.568274 
L 94.54815 197.425667 
L 94.793325 179.926278 
L 106.574465 177.836215 
L 112.78672 182.696203 
z
" style="fill:#0000ff;fill-opacity:0.4;stroke:#000000;stroke-opacity:0.4;"/>
    <path clip-path="url(#p936dac5d40)" d="M 125.946712 193.663942 
L 121.311191 204.096709 
L 114.254586 196.159332 
L 112.78672 182.696203 
L 121.800932 173.474266 
L 127.800612 177.545881 
z
" style="fill:#0000ff;fill-opacity:0.4;stroke:#000000;stroke-opacity:0.4;"/>
    <path clip-path="url(#p936dac5d40)" d="M 139.117598 194.603682 
L 131.432482 199.983586 
L 125.946712 193.663942 
L 127.800612 177.545881 
L 133.973327 176.592892 
L 140.312318 181.610535 
z
" style="fill:#0000ff;fill-opacity:0.4;stroke:#000000;stroke-opacity:0.4;"/>
    <path clip-path="url(#p936dac5d40)" d="M 150.770963 190.565562 
L 144.724479 203.819409 
L 139.117598 194.603682 
L 140.312318 181.610535 
L 143.747576 176.689315 
L 151.576599 179.451949 
z
" style="fill:#0000ff;fill-opacity:0.4;stroke:#000000;stroke-opacity:0.4;"/>
    <path clip-path="url(#p936dac5d40)" d="M 164.077308 195.589926 
L 157.729649 203.142855 
L 150.770963 190.565562 
L 151.576599 179.451949 
L 157.718712 169.027794 
L 160.95102 180.532919 
z
" style="fill:#0000ff;fill-opacity:0.4;stroke:#000000;stroke-opacity:0.4;"/>
    <path clip-path="url(#p936dac5d40)" d="M 172.69841 192.010289 
L 169.696793 197.732448 
L 164.077308 195.589926 
L 160.95102 180.532919 
L 168.50129 171.868348 
L 175.349805 179.040561 
z
" style="fill:#0000ff;fill-opacity:0.4;stroke:#000000;stroke-opacity:0.4;"/>
    <path clip-path="url(#p936dac5d40)" d="M 184.727751 189.153976 
L 181.87526 196.284267 
L 172.69841 192.010289 
L 175.349805 179.040561 
L 181.96422 172.465997 
L 187.182055 178.029772 
z
" style="fill:#0000ff;fill-opacity:0.4;stroke:#000000;stroke-opacity:0.4;"/>
    <path clip-path="url(#p936dac5d40)" d="M 198.359889 190.776879 
L 193.587443 201.828256 
L 184.727751 189.153976 
L 187.182055 178.029772 
L 190.383697 171.77649 
L 196.022551 175.684907 
z
" style="fill:#0000ff;fill-opacity:0.4;stroke:#000000;stroke-opacity:0.4;"/>
    <path clip-path="url(#p936dac5d40)" d="M 209.48615 189.997066 
L 202.426849 199.171109 
L 198.359889 190.776879 
L 196.022551 175.684907 
L 203.107014 173.514961 
L 211.223342 175.614165 
z
" style="fill:#0000ff;fill-opacity:0.4;stroke:#000000;stroke-opacity:0.4;"/>
    <path clip-path="url(#p936dac5d40)" d="M 222.375588 195.705976 
L 215.55486 200.892889 
L 209.48615 189.997066 
L 211.223342 175.614165 
L 216.911179 168.083584 
L 221.844215 179.208421 
z
" style="fill:#0000ff;fill-opacity:0.4;stroke:#000000;stroke-opacity:0.4;"/>
    <path clip-path="url(#p936dac5d40)" d="M 232.195294 189.0483 
L 227.734597 195.9299 
L 222.375588 195.705976 
L 221.844215 179.208421 
L 227.934872 169.174399 
L 235.159867 179.233094 
z
" style="fill:#0000ff;fill-opacity:0.4;stroke:#000000;stroke-opacity:0.4;"/>
    <path clip-path="url(#p936dac5d40)" d="M 244.942672 192.814708 
L 240.378246 198.316318 
L 232.195294 189.0483 
L 235.159867 179.233094 
L 238.561399 175.629946 
L 245.690089 178.09602 
z
" style="fill:#0000ff;fill-opacity:0.4;stroke:#000000;stroke-opacity:0.4;"/>
    <path clip-path="url(#p936dac5d40)" d="M 257.047714 188.42448 
L 252.300101 195.49042 
L 244.942672 192.814708 
L 245.690089 178.09602 
L 251.753984 175.368873 
L 255.667086 181.738813 
z
" style="fill:#0000ff;fill-opacity:0.4;stroke:#000000;stroke-opacity:0.4;"/>
    <path clip-path="url(#p936dac5d40)" d="M 268.298487 189.151999 
L 264.703852 198.06119 
L 257.047714 188.42448 
L 255.667086 181.738813 
L 265.326745 168.397125 
L 269.57238 179.283567 
z
" style="fill:#0000ff;fill-opacity:0.4;stroke:#000000;stroke-opacity:0.4;"/>
    <path clip-path="url(#p936dac5d40)" d="M 283.223044 192.409672 
L 276.277898 194.397723 
L 268.298487 189.151999 
L 269.57238 179.283567 
L 274.075199 168.083512 
L 281.660154 178.544871 
z
" style="fill:#0000ff;fill-opacity:0.4;stroke:#000000;stroke-opacity:0.4;"/>
    <path clip-path="url(#p936dac5d40)" d="M 291.610587 189.607045 
L 288.816568 201.504936 
L 283.223044 192.409672 
L 281.660154 178.544871 
L 288.801057 174.156873 
L 294.601768 176.853493 
z
" style="fill:#0000ff;fill-opacity:0.4;stroke:#000000;stroke-opacity:0.4;"/>
    <path clip-path="url(#p936dac5d40)" d="M 306.814982 191.657565 
L 298.260462 198.556853 
L 291.610587 189.607045 
L 294.601768 176.853493 
L 299.555766 167.765766 
L 305.051969 175.429256 
z
" style="fill:#0000ff;fill-opacity:0.4;stroke:#000000;stroke-opacity:0.4;"/>
    <path clip-path="url(#p936dac5d40)" d="M 316.974025 188.168775 
L 310.915864 195.550193 
L 306.814982 191.657565 
L 305.051969 175.429256 
L 309.951191 172.708681 
L 318.893629 177.344682 
z
" style="fill:#0000ff;fill-opacity:0.4;stroke:#000000;stroke-opacity:0.4;"/>
    <path clip-path="url(#p936dac5d40)" d="M 327.677356 193.384617 
L 323.866131 200.266393 
L 316.974025 188.168775 
L 318.893629 177.344682 
L 323.871198 172.086117 
L 329.208453 173.266166 
z
" style="fill:#0000ff;fill-opacity:0.4;stroke:#000000;stroke-opacity:0.4;"/>
    <path clip-path="url(#p936dac5d40)" d="M 341.793241 189.697748 
L 334.659195 199.64815 
L 327.677356 193.384617 
L 329.208453 173.266166 
L 335.466258 172.850399 
L 342.941968 173.600233 
z
" style="fill:#0000ff;fill-opacity:0.4;stroke:#000000;stroke-opacity:0.4;"/>
    <path clip-path="url(#p936dac5d40)" d="M 354.471033 193.213097 
L 345.620007 195.898187 
L 341.793241 189.697748 
L 342.941968 173.600233 
L 348.330782 173.416843 
L 351.682169 179.713671 
z
" style="fill:#0000ff;fill-opacity:0.4;stroke:#000000;stroke-opacity:0.4;"/>
    <path clip-path="url(#p936dac5d40)" d="M 364.51038 191.664798 
L 357.759818 197.244849 
L 354.471033 193.213097 
L 351.682169 179.713671 
L 359.667796 170.919395 
L 364.907575 177.323102 
z
" style="fill:#0000ff;fill-opacity:0.4;stroke:#000000;stroke-opacity:0.4;"/>
    <path clip-path="url(#p936dac5d40)" d="M 376.203063 190.679776 
L 372.791872 200.167151 
L 364.51038 191.664798 
L 364.907575 177.323102 
L 378.03922 170.766294 
L 377.414514 179.408055 
z
" style="fill:#0000ff;fill-opacity:0.4;stroke:#000000;stroke-opacity:0.4;"/>
    <path clip-path="url(#p936dac5d40)" d="M 106.574465 177.836215 
L 94.793325 179.926278 
L 94.844932 176.242816 
L 95.104928 157.68561 
L 95.158758 153.843512 
L 110.339553 164.105015 
z
" style="fill:#0000ff;fill-opacity:0.4;stroke:#000000;stroke-opacity:0.4;"/>
    <path clip-path="url(#p936dac5d40)" d="M 121.800932 173.474266 
L 112.78672 182.696203 
L 106.574465 177.836215 
L 110.339553 164.105015 
L 114.121226 155.790542 
L 121.615732 161.309555 
z
" style="fill:#0000ff;fill-opacity:0.4;stroke:#000000;stroke-opacity:0.4;"/>
    <path clip-path="url(#p936dac5d40)" d="M 133.973327 176.592892 
L 127.800612 177.545881 
L 121.800932 173.474266 
L 121.615732 161.309555 
L 124.147762 151.105719 
L 133.852943 156.234937 
z
" style="fill:#0000ff;fill-opacity:0.4;stroke:#000000;stroke-opacity:0.4;"/>
    <path clip-path="url(#p936dac5d40)" d="M 143.747576 176.689315 
L 140.312318 181.610535 
L 133.973327 176.592892 
L 133.852943 156.234937 
L 137.923549 153.227237 
L 142.690159 161.216896 
z
" style="fill:#0000ff;fill-opacity:0.4;stroke:#000000;stroke-opacity:0.4;"/>
    <path clip-path="url(#p936dac5d40)" d="M 157.718712 169.027794 
L 151.576599 179.451949 
L 143.747576 176.689315 
L 142.690159 161.216896 
L 151.494214 149.139658 
L 157.048672 156.781438 
z
" style="fill:#0000ff;fill-opacity:0.4;stroke:#000000;stroke-opacity:0.4;"/>
    <path clip-path="url(#p936dac5d40)" d="M 168.50129 171.868348 
L 160.95102 180.532919 
L 157.718712 169.027794 
L 157.048672 156.781438 
L 162.907607 155.980454 
L 166.106378 158.878546 
z
" style="fill:#0000ff;fill-opacity:0.4;stroke:#000000;stroke-opacity:0.4;"/>
    <path clip-path="url(#p936dac5d40)" d="M 181.96422 172.465997 
L 175.349805 179.040561 
L 168.50129 171.868348 
L 166.106378 158.878546 
L 172.66259 155.626989 
L 178.780081 161.515584 
z
" style="fill:#0000ff;fill-opacity:0.4;stroke:#000000;stroke-opacity:0.4;"/>
    <path clip-path="url(#p936dac5d40)" d="M 190.383697 171.77649 
L 187.182055 178.029772 
L 181.96422 172.465997 
L 178.780081 161.515584 
L 184.176781 148.180845 
L 190.097352 159.202141 
z
" style="fill:#0000ff;fill-opacity:0.4;stroke:#000000;stroke-opacity:0.4;"/>
    <path clip-path="url(#p936dac5d40)" d="M 203.107014 173.514961 
L 196.022551 175.684907 
L 190.383697 171.77649 
L 190.097352 159.202141 
L 196.364119 151.05881 
L 201.620183 155.556278 
z
" style="fill:#0000ff;fill-opacity:0.4;stroke:#000000;stroke-opacity:0.4;"/>
    <path clip-path="url(#p936dac5d40)" d="M 216.911179 168.083584 
L 211.223342 175.614165 
L 203.107014 173.514961 
L 201.620183 155.556278 
L 210.980683 155.036478 
L 214.754552 158.940503 
z
" style="fill:#0000ff;fill-opacity:0.4;stroke:#000000;stroke-opacity:0.4;"/>
    <path clip-path="url(#p936dac5d40)" d="M 227.934872 169.174399 
L 221.844215 179.208421 
L 216.911179 168.083584 
L 214.754552 158.940503 
L 223.004166 150.385101 
L 228.793753 154.696135 
z
" style="fill:#0000ff;fill-opacity:0.4;stroke:#000000;stroke-opacity:0.4;"/>
    <path clip-path="url(#p936dac5d40)" d="M 238.561399 175.629946 
L 235.159867 179.233094 
L 227.934872 169.174399 
L 228.793753 154.696135 
L 232.977922 148.198476 
L 238.632986 155.139876 
z
" style="fill:#0000ff;fill-opacity:0.4;stroke:#000000;stroke-opacity:0.4;"/>
    <path clip-path="url(#p936dac5d40)" d="M 251.753984 175.368873 
L 245.690089 178.09602 
L 238.561399 175.629946 
L 238.632986 155.139876 
L 246.913048 149.782675 
L 251.494448 158.630672 
z
" style="fill:#0000ff;fill-opacity:0.4;stroke:#000000;stroke-opacity:0.4;"/>
    <path clip-path="url(#p936dac5d40)" d="M 265.326745 168.397125 
L 255.667086 181.738813 
L 251.753984 175.368873 
L 251.494448 158.630672 
L 258.998313 154.177548 
L 265.036006 153.83438 
z
" style="fill:#0000ff;fill-opacity:0.4;stroke:#000000;stroke-opacity:0.4;"/>
    <path clip-path="url(#p936dac5d40)" d="M 274.075199 168.083512 
L 269.57238 179.283567 
L 265.326745 168.397125 
L 265.036006 153.83438 
L 271.084423 151.282438 
L 275.70735 160.670369 
z
" style="fill:#0000ff;fill-opacity:0.4;stroke:#000000;stroke-opacity:0.4;"/>
    <path clip-path="url(#p936dac5d40)" d="M 288.801057 174.156873 
L 281.660154 178.544871 
L 274.075199 168.083512 
L 275.70735 160.670369 
L 281.495552 146.062307 
L 288.934712 157.334259 
z
" style="fill:#0000ff;fill-opacity:0.4;stroke:#000000;stroke-opacity:0.4;"/>
    <path clip-path="url(#p936dac5d40)" d="M 299.555766 167.765766 
L 294.601768 176.853493 
L 288.801057 174.156873 
L 288.934712 157.334259 
L 291.758946 148.973618 
L 298.825655 153.391336 
z
" style="fill:#0000ff;fill-opacity:0.4;stroke:#000000;stroke-opacity:0.4;"/>
    <path clip-path="url(#p936dac5d40)" d="M 309.951191 172.708681 
L 305.051969 175.429256 
L 299.555766 167.765766 
L 298.825655 153.391336 
L 306.512081 149.016152 
L 310.655725 157.906198 
z
" style="fill:#0000ff;fill-opacity:0.4;stroke:#000000;stroke-opacity:0.4;"/>
    <path clip-path="url(#p936dac5d40)" d="M 323.871198 172.086117 
L 318.893629 177.344682 
L 309.951191 172.708681 
L 310.655725 157.906198 
L 318.391147 152.768755 
L 324.270197 154.178611 
z
" style="fill:#0000ff;fill-opacity:0.4;stroke:#000000;stroke-opacity:0.4;"/>
    <path clip-path="url(#p936dac5d40)" d="M 335.466258 172.850399 
L 329.208453 173.266166 
L 323.871198 172.086117 
L 324.270197 154.178611 
L 327.159267 150.83279 
L 335.401245 154.813081 
z
" style="fill:#0000ff;fill-opacity:0.4;stroke:#000000;stroke-opacity:0.4;"/>
    <path clip-path="url(#p936dac5d40)" d="M 348.330782 173.416843 
L 342.941968 173.600233 
L 335.466258 172.850399 
L 335.401245 154.813081 
L 339.376385 152.294993 
L 345.973267 153.676013 
z
" style="fill:#0000ff;fill-opacity:0.4;stroke:#000000;stroke-opacity:0.4;"/>
    <path clip-path="url(#p936dac5d40)" d="M 359.667796 170.919395 
L 351.682169 179.713671 
L 348.330782 173.416843 
L 345.973267 153.676013 
L 351.029873 148.177172 
L 358.542536 156.535415 
z
" style="fill:#0000ff;fill-opacity:0.4;stroke:#000000;stroke-opacity:0.4;"/>
    <path clip-path="url(#p936dac5d40)" d="M 378.03922 170.766294 
L 364.907575 177.323102 
L 359.667796 170.919395 
L 358.542536 156.535415 
L 362.413768 147.360955 
L 378.956043 156.923907 
z
" style="fill:#0000ff;fill-opacity:0.4;stroke:#000000;stroke-opacity:0.4;"/>
    <path clip-path="url(#p936dac5d40)" d="M 114.121226 155.790542 
L 110.339553 164.105015 
L 95.158758 153.843512 
L 95.37191 138.62975 
L 109.48606 132.288793 
L 114.083272 143.029806 
z
" style="fill:#0000ff;fill-opacity:0.4;stroke:#000000;stroke-opacity:0.4;"/>
    <path clip-path="url(#p936dac5d40)" d="M 124.147762 151.105719 
L 121.615732 161.309555 
L 114.121226 155.790542 
L 114.083272 143.029806 
L 119.347515 133.632576 
L 126.186501 139.112459 
z
" style="fill:#0000ff;fill-opacity:0.4;stroke:#000000;stroke-opacity:0.4;"/>
    <path clip-path="url(#p936dac5d40)" d="M 137.923549 153.227237 
L 133.852943 156.234937 
L 124.147762 151.105719 
L 126.186501 139.112459 
L 130.787889 132.349622 
L 137.04929 138.129311 
z
" style="fill:#0000ff;fill-opacity:0.4;stroke:#000000;stroke-opacity:0.4;"/>
    <path clip-path="url(#p936dac5d40)" d="M 151.494214 149.139658 
L 142.690159 161.216896 
L 137.923549 153.227237 
L 137.04929 138.129311 
L 144.789272 129.962465 
L 147.504058 138.131319 
z
" style="fill:#0000ff;fill-opacity:0.4;stroke:#000000;stroke-opacity:0.4;"/>
    <path clip-path="url(#p936dac5d40)" d="M 162.907607 155.980454 
L 157.048672 156.781438 
L 151.494214 149.139658 
L 147.504058 138.131319 
L 153.585026 129.42474 
L 160.731636 140.765828 
z
" style="fill:#0000ff;fill-opacity:0.4;stroke:#000000;stroke-opacity:0.4;"/>
    <path clip-path="url(#p936dac5d40)" d="M 172.66259 155.626989 
L 166.106378 158.878546 
L 162.907607 155.980454 
L 160.731636 140.765828 
L 168.115337 134.115504 
L 172.977922 136.17699 
z
" style="fill:#0000ff;fill-opacity:0.4;stroke:#000000;stroke-opacity:0.4;"/>
    <path clip-path="url(#p936dac5d40)" d="M 184.176781 148.180845 
L 178.780081 161.515584 
L 172.66259 155.626989 
L 172.977922 136.17699 
L 177.73047 131.857437 
L 184.142012 141.647507 
z
" style="fill:#0000ff;fill-opacity:0.4;stroke:#000000;stroke-opacity:0.4;"/>
    <path clip-path="url(#p936dac5d40)" d="M 196.364119 151.05881 
L 190.097352 159.202141 
L 184.176781 148.180845 
L 184.142012 141.647507 
L 189.408028 134.438265 
L 197.880975 135.513895 
z
" style="fill:#0000ff;fill-opacity:0.4;stroke:#000000;stroke-opacity:0.4;"/>
    <path clip-path="url(#p936dac5d40)" d="M 210.980683 155.036478 
L 201.620183 155.556278 
L 196.364119 151.05881 
L 197.880975 135.513895 
L 203.660958 127.510966 
L 209.678874 136.169645 
z
" style="fill:#0000ff;fill-opacity:0.4;stroke:#000000;stroke-opacity:0.4;"/>
    <path clip-path="url(#p936dac5d40)" d="M 223.004166 150.385101 
L 214.754552 158.940503 
L 210.980683 155.036478 
L 209.678874 136.169645 
L 215.169737 127.954245 
L 222.598299 133.914756 
z
" style="fill:#0000ff;fill-opacity:0.4;stroke:#000000;stroke-opacity:0.4;"/>
    <path clip-path="url(#p936dac5d40)" d="M 232.977922 148.198476 
L 228.793753 154.696135 
L 223.004166 150.385101 
L 222.598299 133.914756 
L 226.427587 126.37576 
L 233.645232 139.257154 
z
" style="fill:#0000ff;fill-opacity:0.4;stroke:#000000;stroke-opacity:0.4;"/>
    <path clip-path="url(#p936dac5d40)" d="M 246.913048 149.782675 
L 238.632986 155.139876 
L 232.977922 148.198476 
L 233.645232 139.257154 
L 239.558608 127.897292 
L 244.253231 136.410202 
z
" style="fill:#0000ff;fill-opacity:0.4;stroke:#000000;stroke-opacity:0.4;"/>
    <path clip-path="url(#p936dac5d40)" d="M 258.998313 154.177548 
L 251.494448 158.630672 
L 246.913048 149.782675 
L 244.253231 136.410202 
L 249.296886 132.060702 
L 255.541448 136.412588 
z
" style="fill:#0000ff;fill-opacity:0.4;stroke:#000000;stroke-opacity:0.4;"/>
    <path clip-path="url(#p936dac5d40)" d="M 271.084423 151.282438 
L 265.036006 153.83438 
L 258.998313 154.177548 
L 255.541448 136.412588 
L 262.423047 130.618239 
L 270.7305 136.710881 
z
" style="fill:#0000ff;fill-opacity:0.4;stroke:#000000;stroke-opacity:0.4;"/>
    <path clip-path="url(#p936dac5d40)" d="M 281.495552 146.062307 
L 275.70735 160.670369 
L 271.084423 151.282438 
L 270.7305 136.710881 
L 273.801174 131.089788 
L 281.059073 139.223386 
z
" style="fill:#0000ff;fill-opacity:0.4;stroke:#000000;stroke-opacity:0.4;"/>
    <path clip-path="url(#p936dac5d40)" d="M 291.758946 148.973618 
L 288.934712 157.334259 
L 281.495552 146.062307 
L 281.059073 139.223386 
L 285.843483 126.287886 
L 292.703275 137.997879 
z
" style="fill:#0000ff;fill-opacity:0.4;stroke:#000000;stroke-opacity:0.4;"/>
    <path clip-path="url(#p936dac5d40)" d="M 306.512081 149.016152 
L 298.825655 153.391336 
L 291.758946 148.973618 
L 292.703275 137.997879 
L 298.355403 129.558454 
L 306.383339 137.900054 
z
" style="fill:#0000ff;fill-opacity:0.4;stroke:#000000;stroke-opacity:0.4;"/>
    <path clip-path="url(#p936dac5d40)" d="M 318.391147 152.768755 
L 310.655725 157.906198 
L 306.512081 149.016152 
L 306.383339 137.900054 
L 309.916561 128.20021 
L 315.905813 132.661199 
z
" style="fill:#0000ff;fill-opacity:0.4;stroke:#000000;stroke-opacity:0.4;"/>
    <path clip-path="url(#p936dac5d40)" d="M 327.159267 150.83279 
L 324.270197 154.178611 
L 318.391147 152.768755 
L 315.905813 132.661199 
L 322.967878 126.309753 
L 330.008859 131.765571 
z
" style="fill:#0000ff;fill-opacity:0.4;stroke:#000000;stroke-opacity:0.4;"/>
    <path clip-path="url(#p936dac5d40)" d="M 339.376385 152.294993 
L 335.401245 154.813081 
L 327.159267 150.83279 
L 330.008859 131.765571 
L 333.908249 127.70117 
L 340.395933 135.138429 
z
" style="fill:#0000ff;fill-opacity:0.4;stroke:#000000;stroke-opacity:0.4;"/>
    <path clip-path="url(#p936dac5d40)" d="M 351.029873 148.177172 
L 345.973267 153.676013 
L 339.376385 152.294993 
L 340.395933 135.138429 
L 347.376064 125.97879 
L 352.717996 136.23465 
z
" style="fill:#0000ff;fill-opacity:0.4;stroke:#000000;stroke-opacity:0.4;"/>
    <path clip-path="url(#p936dac5d40)" d="M 362.413768 147.360955 
L 358.542536 156.535415 
L 351.029873 148.177172 
L 352.717996 136.23465 
L 363.93821 125.598831 
L 368.329401 134.960683 
z
" style="fill:#0000ff;fill-opacity:0.4;stroke:#000000;stroke-opacity:0.4;"/>
    <path clip-path="url(#p936dac5d40)" d="M 375.118022 149.081015 
L 378.956043 156.923907 
L 362.413768 147.360955 
L 368.329401 134.960683 
L 370.840346 139.858188 
L 372.96408 144.409046 
z
" style="fill:#0000ff;fill-opacity:0.4;stroke:#000000;stroke-opacity:0.4;"/>
    <path clip-path="url(#p936dac5d40)" d="M 109.48606 132.288793 
L 95.37191 138.62975 
L 95.41751 135.375095 
L 95.954711 123.507225 
L 95.731388 112.97205 
L 107.773079 118.193796 
z
" style="fill:#0000ff;fill-opacity:0.4;stroke:#000000;stroke-opacity:0.4;"/>
    <path clip-path="url(#p936dac5d40)" d="M 119.347515 133.632576 
L 114.083272 143.029806 
L 109.48606 132.288793 
L 107.773079 118.193796 
L 114.607347 111.707285 
L 119.882818 118.62598 
z
" style="fill:#0000ff;fill-opacity:0.4;stroke:#000000;stroke-opacity:0.4;"/>
    <path clip-path="url(#p936dac5d40)" d="M 130.787889 132.349622 
L 126.186501 139.112459 
L 119.347515 133.632576 
L 119.882818 118.62598 
L 126.421735 113.118792 
L 131.641822 119.456701 
z
" style="fill:#0000ff;fill-opacity:0.4;stroke:#000000;stroke-opacity:0.4;"/>
    <path clip-path="url(#p936dac5d40)" d="M 144.789272 129.962465 
L 137.04929 138.129311 
L 130.787889 132.349622 
L 131.641822 119.456701 
L 135.857697 112.467934 
L 144.034289 119.696355 
z
" style="fill:#0000ff;fill-opacity:0.4;stroke:#000000;stroke-opacity:0.4;"/>
    <path clip-path="url(#p936dac5d40)" d="M 153.585026 129.42474 
L 147.504058 138.131319 
L 144.789272 129.962465 
L 144.034289 119.696355 
L 148.771924 115.193867 
L 155.763838 119.748448 
z
" style="fill:#0000ff;fill-opacity:0.4;stroke:#000000;stroke-opacity:0.4;"/>
    <path clip-path="url(#p936dac5d40)" d="M 168.115337 134.115504 
L 160.731636 140.765828 
L 153.585026 129.42474 
L 155.763838 119.748448 
L 159.458487 107.945942 
L 167.002782 119.184788 
z
" style="fill:#0000ff;fill-opacity:0.4;stroke:#000000;stroke-opacity:0.4;"/>
    <path clip-path="url(#p936dac5d40)" d="M 177.73047 131.857437 
L 172.977922 136.17699 
L 168.115337 134.115504 
L 167.002782 119.184788 
L 173.073852 111.246371 
L 180.206115 116.52398 
z
" style="fill:#0000ff;fill-opacity:0.4;stroke:#000000;stroke-opacity:0.4;"/>
    <path clip-path="url(#p936dac5d40)" d="M 189.408028 134.438265 
L 184.142012 141.647507 
L 177.73047 131.857437 
L 180.206115 116.52398 
L 184.297778 109.055001 
L 191.141725 113.143451 
z
" style="fill:#0000ff;fill-opacity:0.4;stroke:#000000;stroke-opacity:0.4;"/>
    <path clip-path="url(#p936dac5d40)" d="M 203.660958 127.510966 
L 197.880975 135.513895 
L 189.408028 134.438265 
L 191.141725 113.143451 
L 197.653406 106.724654 
L 204.732586 120.459478 
z
" style="fill:#0000ff;fill-opacity:0.4;stroke:#000000;stroke-opacity:0.4;"/>
    <path clip-path="url(#p936dac5d40)" d="M 215.169737 127.954245 
L 209.678874 136.169645 
L 203.660958 127.510966 
L 204.732586 120.459478 
L 209.545726 108.442832 
L 214.701596 115.932676 
z
" style="fill:#0000ff;fill-opacity:0.4;stroke:#000000;stroke-opacity:0.4;"/>
    <path clip-path="url(#p936dac5d40)" d="M 226.427587 126.37576 
L 222.598299 133.914756 
L 215.169737 127.954245 
L 214.701596 115.932676 
L 222.074453 105.789089 
L 228.39571 119.697993 
z
" style="fill:#0000ff;fill-opacity:0.4;stroke:#000000;stroke-opacity:0.4;"/>
    <path clip-path="url(#p936dac5d40)" d="M 239.558608 127.897292 
L 233.645232 139.257154 
L 226.427587 126.37576 
L 228.39571 119.697993 
L 232.581459 112.537485 
L 238.667731 113.909808 
z
" style="fill:#0000ff;fill-opacity:0.4;stroke:#000000;stroke-opacity:0.4;"/>
    <path clip-path="url(#p936dac5d40)" d="M 249.296886 132.060702 
L 244.253231 136.410202 
L 239.558608 127.897292 
L 238.667731 113.909808 
L 243.12801 109.392906 
L 250.860167 113.812153 
z
" style="fill:#0000ff;fill-opacity:0.4;stroke:#000000;stroke-opacity:0.4;"/>
    <path clip-path="url(#p936dac5d40)" d="M 262.423047 130.618239 
L 255.541448 136.412588 
L 249.296886 132.060702 
L 250.860167 113.812153 
L 257.857839 105.097122 
L 261.286366 114.76874 
z
" style="fill:#0000ff;fill-opacity:0.4;stroke:#000000;stroke-opacity:0.4;"/>
    <path clip-path="url(#p936dac5d40)" d="M 273.801174 131.089788 
L 270.7305 136.710881 
L 262.423047 130.618239 
L 261.286366 114.76874 
L 268.01255 106.3702 
L 272.851161 114.963676 
z
" style="fill:#0000ff;fill-opacity:0.4;stroke:#000000;stroke-opacity:0.4;"/>
    <path clip-path="url(#p936dac5d40)" d="M 285.843483 126.287886 
L 281.059073 139.223386 
L 273.801174 131.089788 
L 272.851161 114.963676 
L 279.727042 110.306509 
L 284.252928 112.932709 
z
" style="fill:#0000ff;fill-opacity:0.4;stroke:#000000;stroke-opacity:0.4;"/>
    <path clip-path="url(#p936dac5d40)" d="M 298.355403 129.558454 
L 292.703275 137.997879 
L 285.843483 126.287886 
L 284.252928 112.932709 
L 293.787082 104.614754 
L 297.284935 114.278021 
z
" style="fill:#0000ff;fill-opacity:0.4;stroke:#000000;stroke-opacity:0.4;"/>
    <path clip-path="url(#p936dac5d40)" d="M 309.916561 128.20021 
L 306.383339 137.900054 
L 298.355403 129.558454 
L 297.284935 114.278021 
L 304.136384 111.012589 
L 309.512217 114.988107 
z
" style="fill:#0000ff;fill-opacity:0.4;stroke:#000000;stroke-opacity:0.4;"/>
    <path clip-path="url(#p936dac5d40)" d="M 322.967878 126.309753 
L 315.905813 132.661199 
L 309.916561 128.20021 
L 309.512217 114.988107 
L 316.881066 105.175518 
L 321.019045 112.43974 
z
" style="fill:#0000ff;fill-opacity:0.4;stroke:#000000;stroke-opacity:0.4;"/>
    <path clip-path="url(#p936dac5d40)" d="M 333.908249 127.70117 
L 330.008859 131.765571 
L 322.967878 126.309753 
L 321.019045 112.43974 
L 327.087717 105.704564 
L 335.064336 114.752111 
z
" style="fill:#0000ff;fill-opacity:0.4;stroke:#000000;stroke-opacity:0.4;"/>
    <path clip-path="url(#p936dac5d40)" d="M 347.376064 125.97879 
L 340.395933 135.138429 
L 333.908249 127.70117 
L 335.064336 114.752111 
L 344.607401 104.851905 
L 349.405018 108.709783 
z
" style="fill:#0000ff;fill-opacity:0.4;stroke:#000000;stroke-opacity:0.4;"/>
    <path clip-path="url(#p936dac5d40)" d="M 363.93821 125.598831 
L 352.717996 136.23465 
L 347.376064 125.97879 
L 349.405018 108.709783 
L 348.086733 107.649719 
L 358.711962 116.193718 
z
" style="fill:#0000ff;fill-opacity:0.4;stroke:#000000;stroke-opacity:0.4;"/>
    <path clip-path="url(#p936dac5d40)" d="M 114.607347 111.707285 
L 107.773079 118.193796 
L 95.731388 112.97205 
L 95.995617 94.112664 
L 105.946955 93.902836 
L 111.791161 96.587822 
z
" style="fill:#0000ff;fill-opacity:0.4;stroke:#000000;stroke-opacity:0.4;"/>
    <path clip-path="url(#p936dac5d40)" d="M 126.421735 113.118792 
L 119.882818 118.62598 
L 114.607347 111.707285 
L 111.791161 96.587822 
L 118.785553 93.673552 
L 125.275407 100.845331 
z
" style="fill:#0000ff;fill-opacity:0.4;stroke:#000000;stroke-opacity:0.4;"/>
    <path clip-path="url(#p936dac5d40)" d="M 135.857697 112.467934 
L 131.641822 119.456701 
L 126.421735 113.118792 
L 125.275407 100.845331 
L 129.390387 93.241608 
L 136.862339 100.618696 
z
" style="fill:#0000ff;fill-opacity:0.4;stroke:#000000;stroke-opacity:0.4;"/>
    <path clip-path="url(#p936dac5d40)" d="M 148.771924 115.193867 
L 144.034289 119.696355 
L 135.857697 112.467934 
L 136.862339 100.618696 
L 141.825973 92.144001 
L 147.697859 95.753568 
z
" style="fill:#0000ff;fill-opacity:0.4;stroke:#000000;stroke-opacity:0.4;"/>
    <path clip-path="url(#p936dac5d40)" d="M 159.458487 107.945942 
L 155.763838 119.748448 
L 148.771924 115.193867 
L 147.697859 95.753568 
L 152.660047 86.81316 
L 161.010088 95.983677 
z
" style="fill:#0000ff;fill-opacity:0.4;stroke:#000000;stroke-opacity:0.4;"/>
    <path clip-path="url(#p936dac5d40)" d="M 173.073852 111.246371 
L 167.002782 119.184788 
L 159.458487 107.945942 
L 161.010088 95.983677 
L 164.589688 88.980086 
L 172.736505 98.981147 
z
" style="fill:#0000ff;fill-opacity:0.4;stroke:#000000;stroke-opacity:0.4;"/>
    <path clip-path="url(#p936dac5d40)" d="M 184.297778 109.055001 
L 180.206115 116.52398 
L 173.073852 111.246371 
L 172.736505 98.981147 
L 180.187132 91.742664 
L 186.094277 98.621357 
z
" style="fill:#0000ff;fill-opacity:0.4;stroke:#000000;stroke-opacity:0.4;"/>
    <path clip-path="url(#p936dac5d40)" d="M 197.653406 106.724654 
L 191.141725 113.143451 
L 184.297778 109.055001 
L 186.094277 98.621357 
L 189.378197 88.185799 
L 197.484565 97.254647 
z
" style="fill:#0000ff;fill-opacity:0.4;stroke:#000000;stroke-opacity:0.4;"/>
    <path clip-path="url(#p936dac5d40)" d="M 209.545726 108.442832 
L 204.732586 120.459478 
L 197.653406 106.724654 
L 197.484565 97.254647 
L 201.760231 90.660489 
L 208.960124 98.376364 
z
" style="fill:#0000ff;fill-opacity:0.4;stroke:#000000;stroke-opacity:0.4;"/>
    <path clip-path="url(#p936dac5d40)" d="M 222.074453 105.789089 
L 214.701596 115.932676 
L 209.545726 108.442832 
L 208.960124 98.376364 
L 215.662769 87.844999 
L 219.301159 98.900133 
z
" style="fill:#0000ff;fill-opacity:0.4;stroke:#000000;stroke-opacity:0.4;"/>
    <path clip-path="url(#p936dac5d40)" d="M 232.581459 112.537485 
L 228.39571 119.697993 
L 222.074453 105.789089 
L 219.301159 98.900133 
L 225.981711 90.605718 
L 230.40237 99.325243 
z
" style="fill:#0000ff;fill-opacity:0.4;stroke:#000000;stroke-opacity:0.4;"/>
    <path clip-path="url(#p936dac5d40)" d="M 243.12801 109.392906 
L 238.667731 113.909808 
L 232.581459 112.537485 
L 230.40237 99.325243 
L 238.605017 89.59801 
L 244.103854 92.503898 
z
" style="fill:#0000ff;fill-opacity:0.4;stroke:#000000;stroke-opacity:0.4;"/>
    <path clip-path="url(#p936dac5d40)" d="M 257.857839 105.097122 
L 250.860167 113.812153 
L 243.12801 109.392906 
L 244.103854 92.503898 
L 251.948153 89.773656 
L 254.477059 98.877936 
z
" style="fill:#0000ff;fill-opacity:0.4;stroke:#000000;stroke-opacity:0.4;"/>
    <path clip-path="url(#p936dac5d40)" d="M 268.01255 106.3702 
L 261.286366 114.76874 
L 257.857839 105.097122 
L 254.477059 98.877936 
L 260.961659 91.340913 
L 268.094243 93.968856 
z
" style="fill:#0000ff;fill-opacity:0.4;stroke:#000000;stroke-opacity:0.4;"/>
    <path clip-path="url(#p936dac5d40)" d="M 279.727042 110.306509 
L 272.851161 114.963676 
L 268.01255 106.3702 
L 268.094243 93.968856 
L 273.878816 92.214965 
L 279.99981 91.99619 
z
" style="fill:#0000ff;fill-opacity:0.4;stroke:#000000;stroke-opacity:0.4;"/>
    <path clip-path="url(#p936dac5d40)" d="M 293.787082 104.614754 
L 284.252928 112.932709 
L 279.727042 110.306509 
L 279.99981 91.99619 
L 285.593369 86.41492 
L 292.215849 93.205751 
z
" style="fill:#0000ff;fill-opacity:0.4;stroke:#000000;stroke-opacity:0.4;"/>
    <path clip-path="url(#p936dac5d40)" d="M 304.136384 111.012589 
L 297.284935 114.278021 
L 293.787082 104.614754 
L 292.215849 93.205751 
L 300.172022 77.72588 
L 310.620672 82.039544 
z
" style="fill:#0000ff;fill-opacity:0.4;stroke:#000000;stroke-opacity:0.4;"/>
    <path clip-path="url(#p936dac5d40)" d="M 316.881066 105.175518 
L 309.512217 114.988107 
L 304.136384 111.012589 
L 310.620672 82.039544 
L 311.811207 82.531049 
L 319.343694 85.640791 
z
" style="fill:#0000ff;fill-opacity:0.4;stroke:#000000;stroke-opacity:0.4;"/>
    <path clip-path="url(#p936dac5d40)" d="M 327.087717 105.704564 
L 321.019045 112.43974 
L 316.881066 105.175518 
L 319.343694 85.640791 
L 321.790121 86.650784 
L 326.883286 90.599524 
z
" style="fill:#0000ff;fill-opacity:0.4;stroke:#000000;stroke-opacity:0.4;"/>
    <path clip-path="url(#p936dac5d40)" d="M 344.607401 104.851905 
L 335.064336 114.752111 
L 327.087717 105.704564 
L 326.883286 90.599524 
L 331.94048 94.666134 
L 337.659099 99.264611 
z
" style="fill:#0000ff;fill-opacity:0.4;stroke:#000000;stroke-opacity:0.4;"/>
    <path clip-path="url(#p936dac5d40)" d="M 105.946955 93.902836 
L 95.995617 94.112664 
L 96.960343 86.46645 
L 96.216493 78.347634 
L 96.318251 73.249519 
L 103.948805 71.444159 
z
" style="fill:#0000ff;fill-opacity:0.4;stroke:#000000;stroke-opacity:0.4;"/>
    <path clip-path="url(#p936dac5d40)" d="M 118.785553 93.673552 
L 111.791161 96.587822 
L 105.946955 93.902836 
L 103.948805 71.444159 
L 108.692715 70.879155 
L 115.964344 69.187434 
z
" style="fill:#0000ff;fill-opacity:0.4;stroke:#000000;stroke-opacity:0.4;"/>
    <path clip-path="url(#p936dac5d40)" d="M 129.390387 93.241608 
L 125.275407 100.845331 
L 118.785553 93.673552 
L 115.964344 69.187434 
L 123.575877 67.757856 
L 128.026436 66.891736 
z
" style="fill:#0000ff;fill-opacity:0.4;stroke:#000000;stroke-opacity:0.4;"/>
    <path clip-path="url(#p936dac5d40)" d="M 141.825973 92.144001 
L 136.862339 100.618696 
L 129.390387 93.241608 
L 128.026436 66.891736 
L 133.68702 65.910568 
L 138.972823 64.866044 
z
" style="fill:#0000ff;fill-opacity:0.4;stroke:#000000;stroke-opacity:0.4;"/>
    <path clip-path="url(#p936dac5d40)" d="M 152.660047 86.81316 
L 147.697859 95.753568 
L 141.825973 92.144001 
L 138.972823 64.866044 
L 145.988695 63.548342 
L 151.568612 62.500338 
z
" style="fill:#0000ff;fill-opacity:0.4;stroke:#000000;stroke-opacity:0.4;"/>
    <path clip-path="url(#p936dac5d40)" d="M 164.589688 88.980086 
L 161.010088 95.983677 
L 152.660047 86.81316 
L 151.568612 62.500338 
L 157.221036 61.438715 
L 164.551045 60.062013 
z
" style="fill:#0000ff;fill-opacity:0.4;stroke:#000000;stroke-opacity:0.4;"/>
    <path clip-path="url(#p936dac5d40)" d="M 180.187132 91.742664 
L 172.736505 98.981147 
L 164.589688 88.980086 
L 164.551045 60.062013 
L 171.367695 58.781728 
L 174.980432 58.150548 
z
" style="fill:#0000ff;fill-opacity:0.4;stroke:#000000;stroke-opacity:0.4;"/>
    <path clip-path="url(#p936dac5d40)" d="M 189.378197 88.185799 
L 186.094277 98.621357 
L 180.187132 91.742664 
L 174.980432 58.150548 
L 179.77487 57.288922 
L 192.03283 74.655204 
z
" style="fill:#0000ff;fill-opacity:0.4;stroke:#000000;stroke-opacity:0.4;"/>
    <path clip-path="url(#p936dac5d40)" d="M 201.760231 90.660489 
L 197.484565 97.254647 
L 189.378197 88.185799 
L 192.03283 74.655204 
L 196.742483 69.886623 
L 200.977645 76.390628 
z
" style="fill:#0000ff;fill-opacity:0.4;stroke:#000000;stroke-opacity:0.4;"/>
    <path clip-path="url(#p936dac5d40)" d="M 215.662769 87.844999 
L 208.960124 98.376364 
L 201.760231 90.660489 
L 200.977645 76.390628 
L 206.601029 65.016682 
L 212.666594 79.009237 
z
" style="fill:#0000ff;fill-opacity:0.4;stroke:#000000;stroke-opacity:0.4;"/>
    <path clip-path="url(#p936dac5d40)" d="M 225.981711 90.605718 
L 219.301159 98.900133 
L 215.662769 87.844999 
L 212.666594 79.009237 
L 219.34936 65.255852 
L 227.36851 76.560538 
z
" style="fill:#0000ff;fill-opacity:0.4;stroke:#000000;stroke-opacity:0.4;"/>
    <path clip-path="url(#p936dac5d40)" d="M 238.605017 89.59801 
L 230.40237 99.325243 
L 225.981711 90.605718 
L 227.36851 76.560538 
L 235.716369 59.235924 
L 242.63164 60.823035 
z
" style="fill:#0000ff;fill-opacity:0.4;stroke:#000000;stroke-opacity:0.4;"/>
    <path clip-path="url(#p936dac5d40)" d="M 251.948153 89.773656 
L 244.103854 92.503898 
L 238.605017 89.59801 
L 242.63164 60.823035 
L 247.007837 61.827409 
L 251.660496 62.895232 
z
" style="fill:#0000ff;fill-opacity:0.4;stroke:#000000;stroke-opacity:0.4;"/>
    <path clip-path="url(#p936dac5d40)" d="M 260.961659 91.340913 
L 254.477059 98.877936 
L 251.948153 89.773656 
L 251.660496 62.895232 
L 255.99699 63.890493 
L 262.758004 65.442201 
z
" style="fill:#0000ff;fill-opacity:0.4;stroke:#000000;stroke-opacity:0.4;"/>
    <path clip-path="url(#p936dac5d40)" d="M 273.878816 92.214965 
L 268.094243 93.968856 
L 260.961659 91.340913 
L 262.758004 65.442201 
L 267.545411 66.342208 
L 276.832401 68.67239 
z
" style="fill:#0000ff;fill-opacity:0.4;stroke:#000000;stroke-opacity:0.4;"/>
    <path clip-path="url(#p936dac5d40)" d="M 285.593369 86.41492 
L 279.99981 91.99619 
L 273.878816 92.214965 
L 276.832401 68.67239 
L 279.738278 69.339313 
L 286.0922 71.91311 
z
" style="fill:#0000ff;fill-opacity:0.4;stroke:#000000;stroke-opacity:0.4;"/>
    <path clip-path="url(#p936dac5d40)" d="M 300.172022 77.72588 
L 292.215849 93.205751 
L 285.593369 86.41492 
L 286.0922 71.91311 
L 290.406054 73.800291 
L 297.218358 76.506478 
z
" style="fill:#0000ff;fill-opacity:0.4;stroke:#000000;stroke-opacity:0.4;"/>
    <path clip-path="url(#p936dac5d40)" d="M 196.742483 69.886623 
L 192.03283 74.655204 
L 179.77487 57.288922 
L 185.639909 56.423588 
L 191.053759 55.43687 
L 196.013704 54.599476 
z
" style="fill:#0000ff;fill-opacity:0.4;stroke:#000000;stroke-opacity:0.4;"/>
    <path clip-path="url(#p936dac5d40)" d="M 206.601029 65.016682 
L 200.977645 76.390628 
L 196.742483 69.886623 
L 196.013704 54.599476 
L 202.123218 53.568 
L 206.986644 54.320254 
z
" style="fill:#0000ff;fill-opacity:0.4;stroke:#000000;stroke-opacity:0.4;"/>
    <path clip-path="url(#p936dac5d40)" d="M 219.34936 65.255852 
L 212.666594 79.009237 
L 206.601029 65.016682 
L 206.986644 54.320254 
L 209.707761 54.768033 
L 220.23854 56.500946 
z
" style="fill:#0000ff;fill-opacity:0.4;stroke:#000000;stroke-opacity:0.4;"/>
    <path clip-path="url(#p936dac5d40)" d="M 235.716369 59.235924 
L 227.36851 76.560538 
L 219.34936 65.255852 
L 220.23854 56.500946 
L 225.165784 57.311759 
L 230.092867 57.992399 
z
" style="fill:#0000ff;fill-opacity:0.4;stroke:#000000;stroke-opacity:0.4;"/>
   </g>
   <g id="matplotlib.axis_1">
    <g id="xtick_1">
     <g id="line2d_1">
      <defs>
       <path d="M 0 0 
L 0 3.5 
" id="mbe66040fcf" style="stroke:#000000;stroke-width:0.8;"/>
      </defs>
      <g>
       <use style="stroke:#000000;stroke-width:0.8;" x="84.467866" xlink:href="#mbe66040fcf" y="307.584"/>
      </g>
     </g>
     <g id="text_1">
      <!-- 0 -->
      <defs>
       <path d="M 31.78125 66.40625 
Q 24.171875 66.40625 20.328125 58.90625 
Q 16.5 51.421875 16.5 36.375 
Q 16.5 21.390625 20.328125 13.890625 
Q 24.171875 6.390625 31.78125 6.390625 
Q 39.453125 6.390625 43.28125 13.890625 
Q 47.125 21.390625 47.125 36.375 
Q 47.125 51.421875 43.28125 58.90625 
Q 39.453125 66.40625 31.78125 66.40625 
z
M 31.78125 74.21875 
Q 44.046875 74.21875 50.515625 64.515625 
Q 56.984375 54.828125 56.984375 36.375 
Q 56.984375 17.96875 50.515625 8.265625 
Q 44.046875 -1.421875 31.78125 -1.421875 
Q 19.53125 -1.421875 13.0625 8.265625 
Q 6.59375 17.96875 6.59375 36.375 
Q 6.59375 54.828125 13.0625 64.515625 
Q 19.53125 74.21875 31.78125 74.21875 
z
" id="DejaVuSans-48"/>
      </defs>
      <g transform="translate(81.286616 322.182437)scale(0.1 -0.1)">
       <use xlink:href="#DejaVuSans-48"/>
      </g>
     </g>
    </g>
    <g id="xtick_2">
     <g id="line2d_2">
      <g>
       <use style="stroke:#000000;stroke-width:0.8;" x="130.362702" xlink:href="#mbe66040fcf" y="307.584"/>
      </g>
     </g>
     <g id="text_2">
      <!-- 10 -->
      <defs>
       <path d="M 12.40625 8.296875 
L 28.515625 8.296875 
L 28.515625 63.921875 
L 10.984375 60.40625 
L 10.984375 69.390625 
L 28.421875 72.90625 
L 38.28125 72.90625 
L 38.28125 8.296875 
L 54.390625 8.296875 
L 54.390625 0 
L 12.40625 0 
z
" id="DejaVuSans-49"/>
      </defs>
      <g transform="translate(124.000202 322.182437)scale(0.1 -0.1)">
       <use xlink:href="#DejaVuSans-49"/>
       <use x="63.623047" xlink:href="#DejaVuSans-48"/>
      </g>
     </g>
    </g>
    <g id="xtick_3">
     <g id="line2d_3">
      <g>
       <use style="stroke:#000000;stroke-width:0.8;" x="176.257538" xlink:href="#mbe66040fcf" y="307.584"/>
      </g>
     </g>
     <g id="text_3">
      <!-- 20 -->
      <defs>
       <path d="M 19.1875 8.296875 
L 53.609375 8.296875 
L 53.609375 0 
L 7.328125 0 
L 7.328125 8.296875 
Q 12.9375 14.109375 22.625 23.890625 
Q 32.328125 33.6875 34.8125 36.53125 
Q 39.546875 41.84375 41.421875 45.53125 
Q 43.3125 49.21875 43.3125 52.78125 
Q 43.3125 58.59375 39.234375 62.25 
Q 35.15625 65.921875 28.609375 65.921875 
Q 23.96875 65.921875 18.8125 64.3125 
Q 13.671875 62.703125 7.8125 59.421875 
L 7.8125 69.390625 
Q 13.765625 71.78125 18.9375 73 
Q 24.125 74.21875 28.421875 74.21875 
Q 39.75 74.21875 46.484375 68.546875 
Q 53.21875 62.890625 53.21875 53.421875 
Q 53.21875 48.921875 51.53125 44.890625 
Q 49.859375 40.875 45.40625 35.40625 
Q 44.1875 33.984375 37.640625 27.21875 
Q 31.109375 20.453125 19.1875 8.296875 
z
" id="DejaVuSans-50"/>
      </defs>
      <g transform="translate(169.895038 322.182437)scale(0.1 -0.1)">
       <use xlink:href="#DejaVuSans-50"/>
       <use x="63.623047" xlink:href="#DejaVuSans-48"/>
      </g>
     </g>
    </g>
    <g id="xtick_4">
     <g id="line2d_4">
      <g>
       <use style="stroke:#000000;stroke-width:0.8;" x="222.152374" xlink:href="#mbe66040fcf" y="307.584"/>
      </g>
     </g>
     <g id="text_4">
      <!-- 30 -->
      <defs>
       <path d="M 40.578125 39.3125 
Q 47.65625 37.796875 51.625 33 
Q 55.609375 28.21875 55.609375 21.1875 
Q 55.609375 10.40625 48.1875 4.484375 
Q 40.765625 -1.421875 27.09375 -1.421875 
Q 22.515625 -1.421875 17.65625 -0.515625 
Q 12.796875 0.390625 7.625 2.203125 
L 7.625 11.71875 
Q 11.71875 9.328125 16.59375 8.109375 
Q 21.484375 6.890625 26.8125 6.890625 
Q 36.078125 6.890625 40.9375 10.546875 
Q 45.796875 14.203125 45.796875 21.1875 
Q 45.796875 27.640625 41.28125 31.265625 
Q 36.765625 34.90625 28.71875 34.90625 
L 20.21875 34.90625 
L 20.21875 43.015625 
L 29.109375 43.015625 
Q 36.375 43.015625 40.234375 45.921875 
Q 44.09375 48.828125 44.09375 54.296875 
Q 44.09375 59.90625 40.109375 62.90625 
Q 36.140625 65.921875 28.71875 65.921875 
Q 24.65625 65.921875 20.015625 65.03125 
Q 15.375 64.15625 9.8125 62.3125 
L 9.8125 71.09375 
Q 15.4375 72.65625 20.34375 73.4375 
Q 25.25 74.21875 29.59375 74.21875 
Q 40.828125 74.21875 47.359375 69.109375 
Q 53.90625 64.015625 53.90625 55.328125 
Q 53.90625 49.265625 50.4375 45.09375 
Q 46.96875 40.921875 40.578125 39.3125 
z
" id="DejaVuSans-51"/>
      </defs>
      <g transform="translate(215.789874 322.182437)scale(0.1 -0.1)">
       <use xlink:href="#DejaVuSans-51"/>
       <use x="63.623047" xlink:href="#DejaVuSans-48"/>
      </g>
     </g>
    </g>
    <g id="xtick_5">
     <g id="line2d_5">
      <g>
       <use style="stroke:#000000;stroke-width:0.8;" x="268.047209" xlink:href="#mbe66040fcf" y="307.584"/>
      </g>
     </g>
     <g id="text_5">
      <!-- 40 -->
      <defs>
       <path d="M 37.796875 64.3125 
L 12.890625 25.390625 
L 37.796875 25.390625 
z
M 35.203125 72.90625 
L 47.609375 72.90625 
L 47.609375 25.390625 
L 58.015625 25.390625 
L 58.015625 17.1875 
L 47.609375 17.1875 
L 47.609375 0 
L 37.796875 0 
L 37.796875 17.1875 
L 4.890625 17.1875 
L 4.890625 26.703125 
z
" id="DejaVuSans-52"/>
      </defs>
      <g transform="translate(261.684709 322.182437)scale(0.1 -0.1)">
       <use xlink:href="#DejaVuSans-52"/>
       <use x="63.623047" xlink:href="#DejaVuSans-48"/>
      </g>
     </g>
    </g>
    <g id="xtick_6">
     <g id="line2d_6">
      <g>
       <use style="stroke:#000000;stroke-width:0.8;" x="313.942045" xlink:href="#mbe66040fcf" y="307.584"/>
      </g>
     </g>
     <g id="text_6">
      <!-- 50 -->
      <defs>
       <path d="M 10.796875 72.90625 
L 49.515625 72.90625 
L 49.515625 64.59375 
L 19.828125 64.59375 
L 19.828125 46.734375 
Q 21.96875 47.46875 24.109375 47.828125 
Q 26.265625 48.1875 28.421875 48.1875 
Q 40.625 48.1875 47.75 41.5 
Q 54.890625 34.8125 54.890625 23.390625 
Q 54.890625 11.625 47.5625 5.09375 
Q 40.234375 -1.421875 26.90625 -1.421875 
Q 22.3125 -1.421875 17.546875 -0.640625 
Q 12.796875 0.140625 7.71875 1.703125 
L 7.71875 11.625 
Q 12.109375 9.234375 16.796875 8.0625 
Q 21.484375 6.890625 26.703125 6.890625 
Q 35.15625 6.890625 40.078125 11.328125 
Q 45.015625 15.765625 45.015625 23.390625 
Q 45.015625 31 40.078125 35.4375 
Q 35.15625 39.890625 26.703125 39.890625 
Q 22.75 39.890625 18.8125 39.015625 
Q 14.890625 38.140625 10.796875 36.28125 
z
" id="DejaVuSans-53"/>
      </defs>
      <g transform="translate(307.579545 322.182437)scale(0.1 -0.1)">
       <use xlink:href="#DejaVuSans-53"/>
       <use x="63.623047" xlink:href="#DejaVuSans-48"/>
      </g>
     </g>
    </g>
    <g id="xtick_7">
     <g id="line2d_7">
      <g>
       <use style="stroke:#000000;stroke-width:0.8;" x="359.836881" xlink:href="#mbe66040fcf" y="307.584"/>
      </g>
     </g>
     <g id="text_7">
      <!-- 60 -->
      <defs>
       <path d="M 33.015625 40.375 
Q 26.375 40.375 22.484375 35.828125 
Q 18.609375 31.296875 18.609375 23.390625 
Q 18.609375 15.53125 22.484375 10.953125 
Q 26.375 6.390625 33.015625 6.390625 
Q 39.65625 6.390625 43.53125 10.953125 
Q 47.40625 15.53125 47.40625 23.390625 
Q 47.40625 31.296875 43.53125 35.828125 
Q 39.65625 40.375 33.015625 40.375 
z
M 52.59375 71.296875 
L 52.59375 62.3125 
Q 48.875 64.0625 45.09375 64.984375 
Q 41.3125 65.921875 37.59375 65.921875 
Q 27.828125 65.921875 22.671875 59.328125 
Q 17.53125 52.734375 16.796875 39.40625 
Q 19.671875 43.65625 24.015625 45.921875 
Q 28.375 48.1875 33.59375 48.1875 
Q 44.578125 48.1875 50.953125 41.515625 
Q 57.328125 34.859375 57.328125 23.390625 
Q 57.328125 12.15625 50.6875 5.359375 
Q 44.046875 -1.421875 33.015625 -1.421875 
Q 20.359375 -1.421875 13.671875 8.265625 
Q 6.984375 17.96875 6.984375 36.375 
Q 6.984375 53.65625 15.1875 63.9375 
Q 23.390625 74.21875 37.203125 74.21875 
Q 40.921875 74.21875 44.703125 73.484375 
Q 48.484375 72.75 52.59375 71.296875 
z
" id="DejaVuSans-54"/>
      </defs>
      <g transform="translate(353.474381 322.182437)scale(0.1 -0.1)">
       <use xlink:href="#DejaVuSans-54"/>
       <use x="63.623047" xlink:href="#DejaVuSans-48"/>
      </g>
     </g>
    </g>
   </g>
   <g id="matplotlib.axis_2">
    <g id="ytick_1">
     <g id="line2d_8">
      <defs>
       <path d="M 0 0 
L -3.5 0 
" id="m0a9accafe5" style="stroke:#000000;stroke-width:0.8;"/>
      </defs>
      <g>
       <use style="stroke:#000000;stroke-width:0.8;" x="79.084352" xlink:href="#m0a9accafe5" y="263.244126"/>
      </g>
     </g>
     <g id="text_8">
      <!-- 10 -->
      <g transform="translate(59.359352 267.043345)scale(0.1 -0.1)">
       <use xlink:href="#DejaVuSans-49"/>
       <use x="63.623047" xlink:href="#DejaVuSans-48"/>
      </g>
     </g>
    </g>
    <g id="ytick_2">
     <g id="line2d_9">
      <g>
       <use style="stroke:#000000;stroke-width:0.8;" x="79.084352" xlink:href="#m0a9accafe5" y="217.34929"/>
      </g>
     </g>
     <g id="text_9">
      <!-- 20 -->
      <g transform="translate(59.359352 221.148509)scale(0.1 -0.1)">
       <use xlink:href="#DejaVuSans-50"/>
       <use x="63.623047" xlink:href="#DejaVuSans-48"/>
      </g>
     </g>
    </g>
    <g id="ytick_3">
     <g id="line2d_10">
      <g>
       <use style="stroke:#000000;stroke-width:0.8;" x="79.084352" xlink:href="#m0a9accafe5" y="171.454454"/>
      </g>
     </g>
     <g id="text_10">
      <!-- 30 -->
      <g transform="translate(59.359352 175.253673)scale(0.1 -0.1)">
       <use xlink:href="#DejaVuSans-51"/>
       <use x="63.623047" xlink:href="#DejaVuSans-48"/>
      </g>
     </g>
    </g>
    <g id="ytick_4">
     <g id="line2d_11">
      <g>
       <use style="stroke:#000000;stroke-width:0.8;" x="79.084352" xlink:href="#m0a9accafe5" y="125.559618"/>
      </g>
     </g>
     <g id="text_11">
      <!-- 40 -->
      <g transform="translate(59.359352 129.358837)scale(0.1 -0.1)">
       <use xlink:href="#DejaVuSans-52"/>
       <use x="63.623047" xlink:href="#DejaVuSans-48"/>
      </g>
     </g>
    </g>
    <g id="ytick_5">
     <g id="line2d_12">
      <g>
       <use style="stroke:#000000;stroke-width:0.8;" x="79.084352" xlink:href="#m0a9accafe5" y="79.664782"/>
      </g>
     </g>
     <g id="text_12">
      <!-- 50 -->
      <g transform="translate(59.359352 83.464001)scale(0.1 -0.1)">
       <use xlink:href="#DejaVuSans-53"/>
       <use x="63.623047" xlink:href="#DejaVuSans-48"/>
      </g>
     </g>
    </g>
   </g>
   <g id="patch_3">
    <path d="M 79.084352 307.584 
L 79.084352 41.472 
" style="fill:none;stroke:#000000;stroke-linecap:square;stroke-linejoin:miter;stroke-width:0.8;"/>
   </g>
   <g id="patch_4">
    <path d="M 393.235648 307.584 
L 393.235648 41.472 
" style="fill:none;stroke:#000000;stroke-linecap:square;stroke-linejoin:miter;stroke-width:0.8;"/>
   </g>
   <g id="patch_5">
    <path d="M 79.084352 307.584 
L 393.235648 307.584 
" style="fill:none;stroke:#000000;stroke-linecap:square;stroke-linejoin:miter;stroke-width:0.8;"/>
   </g>
   <g id="patch_6">
    <path d="M 79.084352 41.472 
L 393.235648 41.472 
" style="fill:none;stroke:#000000;stroke-linecap:square;stroke-linejoin:miter;stroke-width:0.8;"/>
   </g>
  </g>
  <g id="text_13">
   <!-- budsmall -->
   <defs>
    <path d="M 48.6875 27.296875 
Q 48.6875 37.203125 44.609375 42.84375 
Q 40.53125 48.484375 33.40625 48.484375 
Q 26.265625 48.484375 22.1875 42.84375 
Q 18.109375 37.203125 18.109375 27.296875 
Q 18.109375 17.390625 22.1875 11.75 
Q 26.265625 6.109375 33.40625 6.109375 
Q 40.53125 6.109375 44.609375 11.75 
Q 48.6875 17.390625 48.6875 27.296875 
z
M 18.109375 46.390625 
Q 20.953125 51.265625 25.265625 53.625 
Q 29.59375 56 35.59375 56 
Q 45.5625 56 51.78125 48.09375 
Q 58.015625 40.1875 58.015625 27.296875 
Q 58.015625 14.40625 51.78125 6.484375 
Q 45.5625 -1.421875 35.59375 -1.421875 
Q 29.59375 -1.421875 25.265625 0.953125 
Q 20.953125 3.328125 18.109375 8.203125 
L 18.109375 0 
L 9.078125 0 
L 9.078125 75.984375 
L 18.109375 75.984375 
z
" id="DejaVuSans-98"/>
    <path d="M 8.5 21.578125 
L 8.5 54.6875 
L 17.484375 54.6875 
L 17.484375 21.921875 
Q 17.484375 14.15625 20.5 10.265625 
Q 23.53125 6.390625 29.59375 6.390625 
Q 36.859375 6.390625 41.078125 11.03125 
Q 45.3125 15.671875 45.3125 23.6875 
L 45.3125 54.6875 
L 54.296875 54.6875 
L 54.296875 0 
L 45.3125 0 
L 45.3125 8.40625 
Q 42.046875 3.421875 37.71875 1 
Q 33.40625 -1.421875 27.6875 -1.421875 
Q 18.265625 -1.421875 13.375 4.4375 
Q 8.5 10.296875 8.5 21.578125 
z
M 31.109375 56 
z
" id="DejaVuSans-117"/>
    <path d="M 45.40625 46.390625 
L 45.40625 75.984375 
L 54.390625 75.984375 
L 54.390625 0 
L 45.40625 0 
L 45.40625 8.203125 
Q 42.578125 3.328125 38.25 0.953125 
Q 33.9375 -1.421875 27.875 -1.421875 
Q 17.96875 -1.421875 11.734375 6.484375 
Q 5.515625 14.40625 5.515625 27.296875 
Q 5.515625 40.1875 11.734375 48.09375 
Q 17.96875 56 27.875 56 
Q 33.9375 56 38.25 53.625 
Q 42.578125 51.265625 45.40625 46.390625 
z
M 14.796875 27.296875 
Q 14.796875 17.390625 18.875 11.75 
Q 22.953125 6.109375 30.078125 6.109375 
Q 37.203125 6.109375 41.296875 11.75 
Q 45.40625 17.390625 45.40625 27.296875 
Q 45.40625 37.203125 41.296875 42.84375 
Q 37.203125 48.484375 30.078125 48.484375 
Q 22.953125 48.484375 18.875 42.84375 
Q 14.796875 37.203125 14.796875 27.296875 
z
" id="DejaVuSans-100"/>
    <path d="M 44.28125 53.078125 
L 44.28125 44.578125 
Q 40.484375 46.53125 36.375 47.5 
Q 32.28125 48.484375 27.875 48.484375 
Q 21.1875 48.484375 17.84375 46.4375 
Q 14.5 44.390625 14.5 40.28125 
Q 14.5 37.15625 16.890625 35.375 
Q 19.28125 33.59375 26.515625 31.984375 
L 29.59375 31.296875 
Q 39.15625 29.25 43.1875 25.515625 
Q 47.21875 21.78125 47.21875 15.09375 
Q 47.21875 7.46875 41.1875 3.015625 
Q 35.15625 -1.421875 24.609375 -1.421875 
Q 20.21875 -1.421875 15.453125 -0.5625 
Q 10.6875 0.296875 5.421875 2 
L 5.421875 11.28125 
Q 10.40625 8.6875 15.234375 7.390625 
Q 20.0625 6.109375 24.8125 6.109375 
Q 31.15625 6.109375 34.5625 8.28125 
Q 37.984375 10.453125 37.984375 14.40625 
Q 37.984375 18.0625 35.515625 20.015625 
Q 33.0625 21.96875 24.703125 23.78125 
L 21.578125 24.515625 
Q 13.234375 26.265625 9.515625 29.90625 
Q 5.8125 33.546875 5.8125 39.890625 
Q 5.8125 47.609375 11.28125 51.796875 
Q 16.75 56 26.8125 56 
Q 31.78125 56 36.171875 55.265625 
Q 40.578125 54.546875 44.28125 53.078125 
z
" id="DejaVuSans-115"/>
    <path d="M 52 44.1875 
Q 55.375 50.25 60.0625 53.125 
Q 64.75 56 71.09375 56 
Q 79.640625 56 84.28125 50.015625 
Q 88.921875 44.046875 88.921875 33.015625 
L 88.921875 0 
L 79.890625 0 
L 79.890625 32.71875 
Q 79.890625 40.578125 77.09375 44.375 
Q 74.3125 48.1875 68.609375 48.1875 
Q 61.625 48.1875 57.5625 43.546875 
Q 53.515625 38.921875 53.515625 30.90625 
L 53.515625 0 
L 44.484375 0 
L 44.484375 32.71875 
Q 44.484375 40.625 41.703125 44.40625 
Q 38.921875 48.1875 33.109375 48.1875 
Q 26.21875 48.1875 22.15625 43.53125 
Q 18.109375 38.875 18.109375 30.90625 
L 18.109375 0 
L 9.078125 0 
L 9.078125 54.6875 
L 18.109375 54.6875 
L 18.109375 46.1875 
Q 21.1875 51.21875 25.484375 53.609375 
Q 29.78125 56 35.6875 56 
Q 41.65625 56 45.828125 52.96875 
Q 50 49.953125 52 44.1875 
z
" id="DejaVuSans-109"/>
    <path d="M 34.28125 27.484375 
Q 23.390625 27.484375 19.1875 25 
Q 14.984375 22.515625 14.984375 16.5 
Q 14.984375 11.71875 18.140625 8.90625 
Q 21.296875 6.109375 26.703125 6.109375 
Q 34.1875 6.109375 38.703125 11.40625 
Q 43.21875 16.703125 43.21875 25.484375 
L 43.21875 27.484375 
z
M 52.203125 31.203125 
L 52.203125 0 
L 43.21875 0 
L 43.21875 8.296875 
Q 40.140625 3.328125 35.546875 0.953125 
Q 30.953125 -1.421875 24.3125 -1.421875 
Q 15.921875 -1.421875 10.953125 3.296875 
Q 6 8.015625 6 15.921875 
Q 6 25.140625 12.171875 29.828125 
Q 18.359375 34.515625 30.609375 34.515625 
L 43.21875 34.515625 
L 43.21875 35.40625 
Q 43.21875 41.609375 39.140625 45 
Q 35.0625 48.390625 27.6875 48.390625 
Q 23 48.390625 18.546875 47.265625 
Q 14.109375 46.140625 10.015625 43.890625 
L 10.015625 52.203125 
Q 14.9375 54.109375 19.578125 55.046875 
Q 24.21875 56 28.609375 56 
Q 40.484375 56 46.34375 49.84375 
Q 52.203125 43.703125 52.203125 31.203125 
z
" id="DejaVuSans-97"/>
    <path d="M 9.421875 75.984375 
L 18.40625 75.984375 
L 18.40625 0 
L 9.421875 0 
z
" id="DejaVuSans-108"/>
   </defs>
   <g transform="translate(193.865 19.0695)scale(0.16 -0.16)">
    <use xlink:href="#DejaVuSans-98"/>
    <use x="63.476562" xlink:href="#DejaVuSans-117"/>
    <use x="126.855469" xlink:href="#DejaVuSans-100"/>
    <use x="190.332031" xlink:href="#DejaVuSans-115"/>
    <use x="242.431641" xlink:href="#DejaVuSans-109"/>
    <use x="339.84375" xlink:href="#DejaVuSans-97"/>
    <use x="401.123047" xlink:href="#DejaVuSans-108"/>
    <use x="428.90625" xlink:href="#DejaVuSans-108"/>
   </g>
  </g>
 </g>
 <defs>
  <clipPath id="p936dac5d40">
   <rect height="266.112" width="314.151296" x="79.084352" y="41.472"/>
  </clipPath>
 </defs>
</svg>
