<?xml version="1.0" encoding="utf-8" standalone="no"?>
<!DOCTYPE svg PUBLIC "-//W3C//DTD SVG 1.1//EN"
  "http://www.w3.org/Graphics/SVG/1.1/DTD/svg11.dtd">
<!-- Created with matplotlib (https://matplotlib.org/) -->
<svg height="345.6pt" version="1.1" viewBox="0 0 460.8 345.6" width="460.8pt" xmlns="http://www.w3.org/2000/svg" xmlns:xlink="http://www.w3.org/1999/xlink">
 <defs>
  <style type="text/css">
*{stroke-linecap:butt;stroke-linejoin:round;}
  </style>
 </defs>
 <g id="figure_1">
  <g id="patch_1">
   <path d="M 0 345.6 
L 460.8 345.6 
L 460.8 0 
L 0 0 
z
" style="fill:#ffffff;"/>
  </g>
  <g id="axes_1">
   <g id="patch_2">
    <path d="M 82.539849 307.584 
L 389.780151 307.584 
L 389.780151 41.472 
L 82.539849 41.472 
z
" style="fill:#ffffff;"/>
   </g>
   <g id="PolyCollection_1">
    <path clip-path="url(#p14cfb01061)" d="M 109.006818 295.199774 
L 102.464742 295.355538 
L 96.565141 295.488 
L 96.505317 278.473838 
L 96.631252 266.489005 
L 111.739126 270.389127 
z
" style="fill:#0000ff;fill-opacity:0.4;stroke:#000000;stroke-opacity:0.4;"/>
    <path clip-path="url(#p14cfb01061)" d="M 120.972024 294.914888 
L 116.263752 295.02699 
L 109.006818 295.199774 
L 111.739126 270.389127 
L 115.355143 261.441852 
L 123.323492 278.937937 
z
" style="fill:#0000ff;fill-opacity:0.4;stroke:#000000;stroke-opacity:0.4;"/>
    <path clip-path="url(#p14cfb01061)" d="M 136.583534 294.543185 
L 129.951472 294.701092 
L 120.972024 294.914888 
L 123.323492 278.937937 
L 126.226978 264.48121 
L 133.786273 269.886161 
z
" style="fill:#0000ff;fill-opacity:0.4;stroke:#000000;stroke-opacity:0.4;"/>
    <path clip-path="url(#p14cfb01061)" d="M 148.559559 294.258042 
L 140.664736 294.66563 
L 136.583534 294.543185 
L 133.786273 269.886161 
L 140.784052 262.346922 
L 147.51114 270.853165 
z
" style="fill:#0000ff;fill-opacity:0.4;stroke:#000000;stroke-opacity:0.4;"/>
    <path clip-path="url(#p14cfb01061)" d="M 160.097192 293.983336 
L 150.834129 294.203885 
L 148.559559 294.258042 
L 147.51114 270.853165 
L 150.79274 261.035599 
L 159.721279 274.515189 
z
" style="fill:#0000ff;fill-opacity:0.4;stroke:#000000;stroke-opacity:0.4;"/>
    <path clip-path="url(#p14cfb01061)" d="M 170.990541 293.239874 
L 165.939743 293.68817 
L 160.097192 293.983336 
L 159.721279 274.515189 
L 165.566297 261.916492 
L 170.923625 271.096275 
z
" style="fill:#0000ff;fill-opacity:0.4;stroke:#000000;stroke-opacity:0.4;"/>
    <path clip-path="url(#p14cfb01061)" d="M 184.870427 292.007932 
L 176.848012 292.719981 
L 170.990541 293.239874 
L 170.923625 271.096275 
L 178.368984 259.571274 
L 183.129158 277.589056 
z
" style="fill:#0000ff;fill-opacity:0.4;stroke:#000000;stroke-opacity:0.4;"/>
    <path clip-path="url(#p14cfb01061)" d="M 195.487177 291.065617 
L 188.543614 291.681909 
L 184.870427 292.007932 
L 183.129158 277.589056 
L 188.658282 265.613697 
L 196.073339 275.958159 
z
" style="fill:#0000ff;fill-opacity:0.4;stroke:#000000;stroke-opacity:0.4;"/>
    <path clip-path="url(#p14cfb01061)" d="M 207.633917 289.987504 
L 200.263838 290.641653 
L 195.487177 291.065617 
L 196.073339 275.958159 
L 201.30587 261.546591 
L 205.547757 270.806835 
z
" style="fill:#0000ff;fill-opacity:0.4;stroke:#000000;stroke-opacity:0.4;"/>
    <path clip-path="url(#p14cfb01061)" d="M 217.908016 289.075601 
L 212.76757 289.531854 
L 207.633917 289.987504 
L 205.547757 270.806835 
L 212.650982 260.227974 
L 220.699906 288.827801 
z
" style="fill:#0000ff;fill-opacity:0.4;stroke:#000000;stroke-opacity:0.4;"/>
    <path clip-path="url(#p14cfb01061)" d="M 115.355143 261.441852 
L 111.739126 270.389127 
L 96.631252 266.489005 
L 96.904373 240.496968 
L 109.974066 229.998235 
L 116.816594 246.589836 
z
" style="fill:#0000ff;fill-opacity:0.4;stroke:#000000;stroke-opacity:0.4;"/>
    <path clip-path="url(#p14cfb01061)" d="M 126.226978 264.48121 
L 123.323492 278.937937 
L 115.355143 261.441852 
L 116.816594 246.589836 
L 119.476929 239.455228 
L 126.890565 251.276857 
z
" style="fill:#0000ff;fill-opacity:0.4;stroke:#000000;stroke-opacity:0.4;"/>
    <path clip-path="url(#p14cfb01061)" d="M 140.784052 262.346922 
L 133.786273 269.886161 
L 126.226978 264.48121 
L 126.890565 251.276857 
L 135.259564 237.772982 
L 139.394775 243.606532 
z
" style="fill:#0000ff;fill-opacity:0.4;stroke:#000000;stroke-opacity:0.4;"/>
    <path clip-path="url(#p14cfb01061)" d="M 150.79274 261.035599 
L 147.51114 270.853165 
L 140.784052 262.346922 
L 139.394775 243.606532 
L 143.985598 240.10888 
L 150.413008 241.313173 
z
" style="fill:#0000ff;fill-opacity:0.4;stroke:#000000;stroke-opacity:0.4;"/>
    <path clip-path="url(#p14cfb01061)" d="M 165.566297 261.916492 
L 159.721279 274.515189 
L 150.79274 261.035599 
L 150.413008 241.313173 
L 158.06161 234.544649 
L 165.241563 250.099508 
z
" style="fill:#0000ff;fill-opacity:0.4;stroke:#000000;stroke-opacity:0.4;"/>
    <path clip-path="url(#p14cfb01061)" d="M 178.368984 259.571274 
L 170.923625 271.096275 
L 165.566297 261.916492 
L 165.241563 250.099508 
L 169.684661 239.297546 
L 175.037715 245.462197 
z
" style="fill:#0000ff;fill-opacity:0.4;stroke:#000000;stroke-opacity:0.4;"/>
    <path clip-path="url(#p14cfb01061)" d="M 188.658282 265.613697 
L 183.129158 277.589056 
L 178.368984 259.571274 
L 175.037715 245.462197 
L 181.258175 236.372441 
L 189.873097 241.451422 
z
" style="fill:#0000ff;fill-opacity:0.4;stroke:#000000;stroke-opacity:0.4;"/>
    <path clip-path="url(#p14cfb01061)" d="M 201.30587 261.546591 
L 196.073339 275.958159 
L 188.658282 265.613697 
L 189.873097 241.451422 
L 195.122329 236.622675 
L 201.536787 238.46263 
z
" style="fill:#0000ff;fill-opacity:0.4;stroke:#000000;stroke-opacity:0.4;"/>
    <path clip-path="url(#p14cfb01061)" d="M 212.650982 260.227974 
L 205.547757 270.806835 
L 201.30587 261.546591 
L 201.536787 238.46263 
L 208.516444 238.568955 
L 212.877753 245.404972 
z
" style="fill:#0000ff;fill-opacity:0.4;stroke:#000000;stroke-opacity:0.4;"/>
    <path clip-path="url(#p14cfb01061)" d="M 231.197869 288.158362 
L 220.699906 288.827801 
L 212.650982 260.227974 
L 212.877753 245.404972 
L 218.059347 235.662682 
L 223.919644 238.668136 
z
" style="fill:#0000ff;fill-opacity:0.4;stroke:#000000;stroke-opacity:0.4;"/>
    <path clip-path="url(#p14cfb01061)" d="M 245.624556 283.105556 
L 238.071846 285.867036 
L 231.197869 288.158362 
L 223.919644 238.668136 
L 230.418883 236.276774 
L 235.630481 244.694765 
z
" style="fill:#0000ff;fill-opacity:0.4;stroke:#000000;stroke-opacity:0.4;"/>
    <path clip-path="url(#p14cfb01061)" d="M 257.012155 279.333868 
L 250.31919 281.53659 
L 245.624556 283.105556 
L 235.630481 244.694765 
L 243.374046 235.938524 
L 247.92238 238.233959 
z
" style="fill:#0000ff;fill-opacity:0.4;stroke:#000000;stroke-opacity:0.4;"/>
    <path clip-path="url(#p14cfb01061)" d="M 267.831105 275.750521 
L 262.021448 277.883504 
L 257.012155 279.333868 
L 247.92238 238.233959 
L 254.82868 228.946244 
L 264.043032 248.874775 
z
" style="fill:#0000ff;fill-opacity:0.4;stroke:#000000;stroke-opacity:0.4;"/>
    <path clip-path="url(#p14cfb01061)" d="M 278.220831 272.309338 
L 267.902669 275.726818 
L 267.831105 275.750521 
L 264.043032 248.874775 
L 268.426031 235.021593 
L 275.392235 244.09568 
z
" style="fill:#0000ff;fill-opacity:0.4;stroke:#000000;stroke-opacity:0.4;"/>
    <path clip-path="url(#p14cfb01061)" d="M 288.619327 268.86525 
L 283.257514 270.511486 
L 278.220831 272.309338 
L 275.392235 244.09568 
L 280.634928 228.202728 
L 287.492736 247.709325 
z
" style="fill:#0000ff;fill-opacity:0.4;stroke:#000000;stroke-opacity:0.4;"/>
    <path clip-path="url(#p14cfb01061)" d="M 297.036248 265.770133 
L 294.156857 267.01125 
L 288.619327 268.86525 
L 287.492736 247.709325 
L 292.724254 228.802623 
L 298.398414 245.307418 
z
" style="fill:#0000ff;fill-opacity:0.4;stroke:#000000;stroke-opacity:0.4;"/>
    <path clip-path="url(#p14cfb01061)" d="M 309.9392 260.208515 
L 300.615523 264.227342 
L 297.036248 265.770133 
L 298.398414 245.307418 
L 303.910787 226.664934 
L 318.407291 256.558476 
z
" style="fill:#0000ff;fill-opacity:0.4;stroke:#000000;stroke-opacity:0.4;"/>
    <path clip-path="url(#p14cfb01061)" d="M 109.974066 229.998235 
L 96.904373 240.496968 
L 96.977543 233.533633 
L 97.099841 221.89497 
L 97.299679 202.877008 
L 109.53119 214.704914 
z
" style="fill:#0000ff;fill-opacity:0.4;stroke:#000000;stroke-opacity:0.4;"/>
    <path clip-path="url(#p14cfb01061)" d="M 119.476929 239.455228 
L 116.816594 246.589836 
L 109.974066 229.998235 
L 109.53119 214.704914 
L 113.18053 207.866557 
L 119.5456 220.855209 
z
" style="fill:#0000ff;fill-opacity:0.4;stroke:#000000;stroke-opacity:0.4;"/>
    <path clip-path="url(#p14cfb01061)" d="M 135.259564 237.772982 
L 126.890565 251.276857 
L 119.476929 239.455228 
L 119.5456 220.855209 
L 125.425736 200.737877 
L 132.155387 217.96923 
z
" style="fill:#0000ff;fill-opacity:0.4;stroke:#000000;stroke-opacity:0.4;"/>
    <path clip-path="url(#p14cfb01061)" d="M 143.985598 240.10888 
L 139.394775 243.606532 
L 135.259564 237.772982 
L 132.155387 217.96923 
L 138.338702 200.286198 
L 143.922714 211.336768 
z
" style="fill:#0000ff;fill-opacity:0.4;stroke:#000000;stroke-opacity:0.4;"/>
    <path clip-path="url(#p14cfb01061)" d="M 158.06161 234.544649 
L 150.413008 241.313173 
L 143.985598 240.10888 
L 143.922714 211.336768 
L 150.693693 205.991856 
L 156.600838 219.932892 
z
" style="fill:#0000ff;fill-opacity:0.4;stroke:#000000;stroke-opacity:0.4;"/>
    <path clip-path="url(#p14cfb01061)" d="M 169.684661 239.297546 
L 165.241563 250.099508 
L 158.06161 234.544649 
L 156.600838 219.932892 
L 162.457821 198.904908 
L 169.928058 216.444016 
z
" style="fill:#0000ff;fill-opacity:0.4;stroke:#000000;stroke-opacity:0.4;"/>
    <path clip-path="url(#p14cfb01061)" d="M 181.258175 236.372441 
L 175.037715 245.462197 
L 169.684661 239.297546 
L 169.928058 216.444016 
L 174.692752 210.34352 
L 180.699865 214.888757 
z
" style="fill:#0000ff;fill-opacity:0.4;stroke:#000000;stroke-opacity:0.4;"/>
    <path clip-path="url(#p14cfb01061)" d="M 195.122329 236.622675 
L 189.873097 241.451422 
L 181.258175 236.372441 
L 180.699865 214.888757 
L 187.903872 209.005818 
L 195.626294 219.309585 
z
" style="fill:#0000ff;fill-opacity:0.4;stroke:#000000;stroke-opacity:0.4;"/>
    <path clip-path="url(#p14cfb01061)" d="M 208.516444 238.568955 
L 201.536787 238.46263 
L 195.122329 236.622675 
L 195.626294 219.309585 
L 200.066756 209.301056 
L 205.790363 219.618268 
z
" style="fill:#0000ff;fill-opacity:0.4;stroke:#000000;stroke-opacity:0.4;"/>
    <path clip-path="url(#p14cfb01061)" d="M 218.059347 235.662682 
L 212.877753 245.404972 
L 208.516444 238.568955 
L 205.790363 219.618268 
L 213.506013 208.948571 
L 219.481899 215.490916 
z
" style="fill:#0000ff;fill-opacity:0.4;stroke:#000000;stroke-opacity:0.4;"/>
    <path clip-path="url(#p14cfb01061)" d="M 230.418883 236.276774 
L 223.919644 238.668136 
L 218.059347 235.662682 
L 219.481899 215.490916 
L 222.643167 199.053216 
L 232.234469 212.132776 
z
" style="fill:#0000ff;fill-opacity:0.4;stroke:#000000;stroke-opacity:0.4;"/>
    <path clip-path="url(#p14cfb01061)" d="M 243.374046 235.938524 
L 235.630481 244.694765 
L 230.418883 236.276774 
L 232.234469 212.132776 
L 237.25258 201.892495 
L 242.151054 212.599154 
z
" style="fill:#0000ff;fill-opacity:0.4;stroke:#000000;stroke-opacity:0.4;"/>
    <path clip-path="url(#p14cfb01061)" d="M 254.82868 228.946244 
L 247.92238 238.233959 
L 243.374046 235.938524 
L 242.151054 212.599154 
L 247.236956 199.857089 
L 254.415753 211.922772 
z
" style="fill:#0000ff;fill-opacity:0.4;stroke:#000000;stroke-opacity:0.4;"/>
    <path clip-path="url(#p14cfb01061)" d="M 268.426031 235.021593 
L 264.043032 248.874775 
L 254.82868 228.946244 
L 254.415753 211.922772 
L 259.921079 205.277337 
L 267.538658 215.832603 
z
" style="fill:#0000ff;fill-opacity:0.4;stroke:#000000;stroke-opacity:0.4;"/>
    <path clip-path="url(#p14cfb01061)" d="M 280.634928 228.202728 
L 275.392235 244.09568 
L 268.426031 235.021593 
L 267.538658 215.832603 
L 272.721042 205.638067 
L 280.048525 208.869201 
z
" style="fill:#0000ff;fill-opacity:0.4;stroke:#000000;stroke-opacity:0.4;"/>
    <path clip-path="url(#p14cfb01061)" d="M 292.724254 228.802623 
L 287.492736 247.709325 
L 280.634928 228.202728 
L 280.048525 208.869201 
L 285.319632 198.74385 
L 291.317718 211.583774 
z
" style="fill:#0000ff;fill-opacity:0.4;stroke:#000000;stroke-opacity:0.4;"/>
    <path clip-path="url(#p14cfb01061)" d="M 303.910787 226.664934 
L 298.398414 245.307418 
L 292.724254 228.802623 
L 291.317718 211.583774 
L 298.768705 207.191445 
L 303.351277 217.966396 
z
" style="fill:#0000ff;fill-opacity:0.4;stroke:#000000;stroke-opacity:0.4;"/>
    <path clip-path="url(#p14cfb01061)" d="M 325.046289 253.696839 
L 318.407291 256.558476 
L 303.910787 226.664934 
L 303.351277 217.966396 
L 309.079685 207.425243 
L 318.437535 215.778737 
z
" style="fill:#0000ff;fill-opacity:0.4;stroke:#000000;stroke-opacity:0.4;"/>
    <path clip-path="url(#p14cfb01061)" d="M 335.940557 249.327356 
L 327.573363 252.607583 
L 325.046289 253.696839 
L 318.437535 215.778737 
L 322.762193 205.503717 
L 327.978642 217.392615 
z
" style="fill:#0000ff;fill-opacity:0.4;stroke:#000000;stroke-opacity:0.4;"/>
    <path clip-path="url(#p14cfb01061)" d="M 349.057598 235.333042 
L 343.155197 243.318643 
L 335.940557 249.327356 
L 327.978642 217.392615 
L 335.290226 205.87403 
L 338.731399 216.734434 
z
" style="fill:#0000ff;fill-opacity:0.4;stroke:#000000;stroke-opacity:0.4;"/>
    <path clip-path="url(#p14cfb01061)" d="M 352.720388 230.377503 
L 347.577733 237.335212 
L 349.057598 235.333042 
L 338.731399 216.734434 
L 347.329407 203.799675 
L 367.339631 210.492361 
z
" style="fill:#0000ff;fill-opacity:0.4;stroke:#000000;stroke-opacity:0.4;"/>
    <path clip-path="url(#p14cfb01061)" d="M 113.18053 207.866557 
L 109.53119 214.704914 
L 97.299679 202.877008 
L 97.541454 179.868175 
L 106.32745 170.701757 
L 115.551615 184.183503 
z
" style="fill:#0000ff;fill-opacity:0.4;stroke:#000000;stroke-opacity:0.4;"/>
    <path clip-path="url(#p14cfb01061)" d="M 125.425736 200.737877 
L 119.5456 220.855209 
L 113.18053 207.866557 
L 115.551615 184.183503 
L 121.382606 177.852801 
L 127.351142 181.865132 
z
" style="fill:#0000ff;fill-opacity:0.4;stroke:#000000;stroke-opacity:0.4;"/>
    <path clip-path="url(#p14cfb01061)" d="M 138.338702 200.286198 
L 132.155387 217.96923 
L 125.425736 200.737877 
L 127.351142 181.865132 
L 133.21599 175.731362 
L 138.495118 188.029547 
z
" style="fill:#0000ff;fill-opacity:0.4;stroke:#000000;stroke-opacity:0.4;"/>
    <path clip-path="url(#p14cfb01061)" d="M 150.693693 205.991856 
L 143.922714 211.336768 
L 138.338702 200.286198 
L 138.495118 188.029547 
L 146.042937 179.408483 
L 150.349607 190.365113 
z
" style="fill:#0000ff;fill-opacity:0.4;stroke:#000000;stroke-opacity:0.4;"/>
    <path clip-path="url(#p14cfb01061)" d="M 162.457821 198.904908 
L 156.600838 219.932892 
L 150.693693 205.991856 
L 150.349607 190.365113 
L 157.576775 178.66907 
L 164.480281 186.442701 
z
" style="fill:#0000ff;fill-opacity:0.4;stroke:#000000;stroke-opacity:0.4;"/>
    <path clip-path="url(#p14cfb01061)" d="M 174.692752 210.34352 
L 169.928058 216.444016 
L 162.457821 198.904908 
L 164.480281 186.442701 
L 167.35087 171.88565 
L 176.452747 183.561774 
z
" style="fill:#0000ff;fill-opacity:0.4;stroke:#000000;stroke-opacity:0.4;"/>
    <path clip-path="url(#p14cfb01061)" d="M 187.903872 209.005818 
L 180.699865 214.888757 
L 174.692752 210.34352 
L 176.452747 183.561774 
L 181.949971 175.971607 
L 186.690293 187.605225 
z
" style="fill:#0000ff;fill-opacity:0.4;stroke:#000000;stroke-opacity:0.4;"/>
    <path clip-path="url(#p14cfb01061)" d="M 200.066756 209.301056 
L 195.626294 219.309585 
L 187.903872 209.005818 
L 186.690293 187.605225 
L 193.898612 169.78158 
L 199.613508 181.407268 
z
" style="fill:#0000ff;fill-opacity:0.4;stroke:#000000;stroke-opacity:0.4;"/>
    <path clip-path="url(#p14cfb01061)" d="M 213.506013 208.948571 
L 205.790363 219.618268 
L 200.066756 209.301056 
L 199.613508 181.407268 
L 205.105863 173.540413 
L 213.577882 183.898982 
z
" style="fill:#0000ff;fill-opacity:0.4;stroke:#000000;stroke-opacity:0.4;"/>
    <path clip-path="url(#p14cfb01061)" d="M 222.643167 199.053216 
L 219.481899 215.490916 
L 213.506013 208.948571 
L 213.577882 183.898982 
L 216.810797 173.760016 
L 225.050005 178.515523 
z
" style="fill:#0000ff;fill-opacity:0.4;stroke:#000000;stroke-opacity:0.4;"/>
    <path clip-path="url(#p14cfb01061)" d="M 237.25258 201.892495 
L 232.234469 212.132776 
L 222.643167 199.053216 
L 225.050005 178.515523 
L 229.569862 169.651516 
L 235.498886 187.957023 
z
" style="fill:#0000ff;fill-opacity:0.4;stroke:#000000;stroke-opacity:0.4;"/>
    <path clip-path="url(#p14cfb01061)" d="M 247.236956 199.857089 
L 242.151054 212.599154 
L 237.25258 201.892495 
L 235.498886 187.957023 
L 242.985321 171.403599 
L 250.727106 183.338297 
z
" style="fill:#0000ff;fill-opacity:0.4;stroke:#000000;stroke-opacity:0.4;"/>
    <path clip-path="url(#p14cfb01061)" d="M 259.921079 205.277337 
L 254.415753 211.922772 
L 247.236956 199.857089 
L 250.727106 183.338297 
L 253.100249 172.115451 
L 259.759682 186.866413 
z
" style="fill:#0000ff;fill-opacity:0.4;stroke:#000000;stroke-opacity:0.4;"/>
    <path clip-path="url(#p14cfb01061)" d="M 272.721042 205.638067 
L 267.538658 215.832603 
L 259.921079 205.277337 
L 259.759682 186.866413 
L 264.687973 168.759479 
L 271.255199 178.882895 
z
" style="fill:#0000ff;fill-opacity:0.4;stroke:#000000;stroke-opacity:0.4;"/>
    <path clip-path="url(#p14cfb01061)" d="M 285.319632 198.74385 
L 280.048525 208.869201 
L 272.721042 205.638067 
L 271.255199 178.882895 
L 277.6592 177.759899 
L 287.243918 186.079752 
z
" style="fill:#0000ff;fill-opacity:0.4;stroke:#000000;stroke-opacity:0.4;"/>
    <path clip-path="url(#p14cfb01061)" d="M 298.768705 207.191445 
L 291.317718 211.583774 
L 285.319632 198.74385 
L 287.243918 186.079752 
L 292.780821 168.439806 
L 297.168878 182.742256 
z
" style="fill:#0000ff;fill-opacity:0.4;stroke:#000000;stroke-opacity:0.4;"/>
    <path clip-path="url(#p14cfb01061)" d="M 309.079685 207.425243 
L 303.351277 217.966396 
L 298.768705 207.191445 
L 297.168878 182.742256 
L 305.051758 174.940644 
L 310.922917 180.329196 
z
" style="fill:#0000ff;fill-opacity:0.4;stroke:#000000;stroke-opacity:0.4;"/>
    <path clip-path="url(#p14cfb01061)" d="M 322.762193 205.503717 
L 318.437535 215.778737 
L 309.079685 207.425243 
L 310.922917 180.329196 
L 314.367859 173.116101 
L 321.009324 180.772604 
z
" style="fill:#0000ff;fill-opacity:0.4;stroke:#000000;stroke-opacity:0.4;"/>
    <path clip-path="url(#p14cfb01061)" d="M 335.290226 205.87403 
L 327.978642 217.392615 
L 322.762193 205.503717 
L 321.009324 180.772604 
L 329.833817 171.94644 
L 335.981414 176.178372 
z
" style="fill:#0000ff;fill-opacity:0.4;stroke:#000000;stroke-opacity:0.4;"/>
    <path clip-path="url(#p14cfb01061)" d="M 347.329407 203.799675 
L 338.731399 216.734434 
L 335.290226 205.87403 
L 335.981414 176.178372 
L 341.987738 171.975545 
L 344.414234 177.539386 
z
" style="fill:#0000ff;fill-opacity:0.4;stroke:#000000;stroke-opacity:0.4;"/>
    <path clip-path="url(#p14cfb01061)" d="M 370.377857 195.780951 
L 367.339631 210.492361 
L 347.329407 203.799675 
L 344.414234 177.539386 
L 350.567089 175.056101 
L 359.672534 175.517686 
z
" style="fill:#0000ff;fill-opacity:0.4;stroke:#000000;stroke-opacity:0.4;"/>
    <path clip-path="url(#p14cfb01061)" d="M 371.976924 189.224779 
L 369.418418 201.697497 
L 370.377857 195.780951 
L 359.672534 175.517686 
L 364.817087 173.244201 
L 373.136793 180.690611 
z
" style="fill:#0000ff;fill-opacity:0.4;stroke:#000000;stroke-opacity:0.4;"/>
    <path clip-path="url(#p14cfb01061)" d="M 106.32745 170.701757 
L 97.541454 179.868175 
L 97.601511 174.152737 
L 97.745845 160.416954 
L 97.945511 141.415387 
L 109.987116 158.101378 
z
" style="fill:#0000ff;fill-opacity:0.4;stroke:#000000;stroke-opacity:0.4;"/>
    <path clip-path="url(#p14cfb01061)" d="M 121.382606 177.852801 
L 115.551615 184.183503 
L 106.32745 170.701757 
L 109.987116 158.101378 
L 115.209151 147.359342 
L 118.05685 154.653934 
z
" style="fill:#0000ff;fill-opacity:0.4;stroke:#000000;stroke-opacity:0.4;"/>
    <path clip-path="url(#p14cfb01061)" d="M 133.21599 175.731362 
L 127.351142 181.865132 
L 121.382606 177.852801 
L 118.05685 154.653934 
L 127.581926 146.329458 
L 132.094379 160.210923 
z
" style="fill:#0000ff;fill-opacity:0.4;stroke:#000000;stroke-opacity:0.4;"/>
    <path clip-path="url(#p14cfb01061)" d="M 146.042937 179.408483 
L 138.495118 188.029547 
L 133.21599 175.731362 
L 132.094379 160.210923 
L 139.62805 143.607599 
L 143.685643 149.712448 
z
" style="fill:#0000ff;fill-opacity:0.4;stroke:#000000;stroke-opacity:0.4;"/>
    <path clip-path="url(#p14cfb01061)" d="M 157.576775 178.66907 
L 150.349607 190.365113 
L 146.042937 179.408483 
L 143.685643 149.712448 
L 149.903873 146.651912 
L 157.627082 156.583976 
z
" style="fill:#0000ff;fill-opacity:0.4;stroke:#000000;stroke-opacity:0.4;"/>
    <path clip-path="url(#p14cfb01061)" d="M 167.35087 171.88565 
L 164.480281 186.442701 
L 157.576775 178.66907 
L 157.627082 156.583976 
L 161.664134 141.174261 
L 168.055697 156.095863 
z
" style="fill:#0000ff;fill-opacity:0.4;stroke:#000000;stroke-opacity:0.4;"/>
    <path clip-path="url(#p14cfb01061)" d="M 181.949971 175.971607 
L 176.452747 183.561774 
L 167.35087 171.88565 
L 168.055697 156.095863 
L 174.599458 141.305207 
L 180.525113 151.448038 
z
" style="fill:#0000ff;fill-opacity:0.4;stroke:#000000;stroke-opacity:0.4;"/>
    <path clip-path="url(#p14cfb01061)" d="M 193.898612 169.78158 
L 186.690293 187.605225 
L 181.949971 175.971607 
L 180.525113 151.448038 
L 185.454098 146.994136 
L 194.715166 158.67689 
z
" style="fill:#0000ff;fill-opacity:0.4;stroke:#000000;stroke-opacity:0.4;"/>
    <path clip-path="url(#p14cfb01061)" d="M 205.105863 173.540413 
L 199.613508 181.407268 
L 193.898612 169.78158 
L 194.715166 158.67689 
L 198.998157 147.239971 
L 206.705304 153.110524 
z
" style="fill:#0000ff;fill-opacity:0.4;stroke:#000000;stroke-opacity:0.4;"/>
    <path clip-path="url(#p14cfb01061)" d="M 216.810797 173.760016 
L 213.577882 183.898982 
L 205.105863 173.540413 
L 206.705304 153.110524 
L 211.901471 144.001597 
L 218.057336 158.750881 
z
" style="fill:#0000ff;fill-opacity:0.4;stroke:#000000;stroke-opacity:0.4;"/>
    <path clip-path="url(#p14cfb01061)" d="M 229.569862 169.651516 
L 225.050005 178.515523 
L 216.810797 173.760016 
L 218.057336 158.750881 
L 223.626217 140.505068 
L 231.902381 151.532574 
z
" style="fill:#0000ff;fill-opacity:0.4;stroke:#000000;stroke-opacity:0.4;"/>
    <path clip-path="url(#p14cfb01061)" d="M 242.985321 171.403599 
L 235.498886 187.957023 
L 229.569862 169.651516 
L 231.902381 151.532574 
L 237.518949 139.538666 
L 243.632919 150.244149 
z
" style="fill:#0000ff;fill-opacity:0.4;stroke:#000000;stroke-opacity:0.4;"/>
    <path clip-path="url(#p14cfb01061)" d="M 253.100249 172.115451 
L 250.727106 183.338297 
L 242.985321 171.403599 
L 243.632919 150.244149 
L 248.116241 143.807909 
L 254.801401 156.660482 
z
" style="fill:#0000ff;fill-opacity:0.4;stroke:#000000;stroke-opacity:0.4;"/>
    <path clip-path="url(#p14cfb01061)" d="M 264.687973 168.759479 
L 259.759682 186.866413 
L 253.100249 172.115451 
L 254.801401 156.660482 
L 260.206791 144.950133 
L 265.12499 149.809949 
z
" style="fill:#0000ff;fill-opacity:0.4;stroke:#000000;stroke-opacity:0.4;"/>
    <path clip-path="url(#p14cfb01061)" d="M 277.6592 177.759899 
L 271.255199 178.882895 
L 264.687973 168.759479 
L 265.12499 149.809949 
L 274.10996 137.739914 
L 277.559334 148.424 
z
" style="fill:#0000ff;fill-opacity:0.4;stroke:#000000;stroke-opacity:0.4;"/>
    <path clip-path="url(#p14cfb01061)" d="M 292.780821 168.439806 
L 287.243918 186.079752 
L 277.6592 177.759899 
L 277.559334 148.424 
L 283.971595 142.773081 
L 289.160193 152.801439 
z
" style="fill:#0000ff;fill-opacity:0.4;stroke:#000000;stroke-opacity:0.4;"/>
    <path clip-path="url(#p14cfb01061)" d="M 305.051758 174.940644 
L 297.168878 182.742256 
L 292.780821 168.439806 
L 289.160193 152.801439 
L 295.24386 142.742706 
L 302.096539 158.122905 
z
" style="fill:#0000ff;fill-opacity:0.4;stroke:#000000;stroke-opacity:0.4;"/>
    <path clip-path="url(#p14cfb01061)" d="M 314.367859 173.116101 
L 310.922917 180.329196 
L 305.051758 174.940644 
L 302.096539 158.122905 
L 309.674269 139.418737 
L 314.709995 147.960105 
z
" style="fill:#0000ff;fill-opacity:0.4;stroke:#000000;stroke-opacity:0.4;"/>
    <path clip-path="url(#p14cfb01061)" d="M 329.833817 171.94644 
L 321.009324 180.772604 
L 314.367859 173.116101 
L 314.709995 147.960105 
L 321.354614 140.475305 
L 326.407213 157.441053 
z
" style="fill:#0000ff;fill-opacity:0.4;stroke:#000000;stroke-opacity:0.4;"/>
    <path clip-path="url(#p14cfb01061)" d="M 341.987738 171.975545 
L 335.981414 176.178372 
L 329.833817 171.94644 
L 326.407213 157.441053 
L 332.527022 138.451801 
L 340.290561 155.053455 
z
" style="fill:#0000ff;fill-opacity:0.4;stroke:#000000;stroke-opacity:0.4;"/>
    <path clip-path="url(#p14cfb01061)" d="M 350.567089 175.056101 
L 344.414234 177.539386 
L 341.987738 171.975545 
L 340.290561 155.053455 
L 344.557247 135.787183 
L 350.042982 156.342553 
z
" style="fill:#0000ff;fill-opacity:0.4;stroke:#000000;stroke-opacity:0.4;"/>
    <path clip-path="url(#p14cfb01061)" d="M 364.817087 173.244201 
L 359.672534 175.517686 
L 350.567089 175.056101 
L 350.042982 156.342553 
L 363.106282 131.423367 
L 368.597173 146.219473 
z
" style="fill:#0000ff;fill-opacity:0.4;stroke:#000000;stroke-opacity:0.4;"/>
    <path clip-path="url(#p14cfb01061)" d="M 375.814683 170.035983 
L 373.136793 180.690611 
L 364.817087 173.244201 
L 368.597173 146.219473 
L 368.471494 145.767029 
L 371.829541 157.855999 
z
" style="fill:#0000ff;fill-opacity:0.4;stroke:#000000;stroke-opacity:0.4;"/>
    <path clip-path="url(#p14cfb01061)" d="M 115.209151 147.359342 
L 109.987116 158.101378 
L 97.945511 141.415387 
L 98.059242 130.591997 
L 109.22049 119.734853 
L 114.883695 126.415762 
z
" style="fill:#0000ff;fill-opacity:0.4;stroke:#000000;stroke-opacity:0.4;"/>
    <path clip-path="url(#p14cfb01061)" d="M 127.581926 146.329458 
L 118.05685 154.653934 
L 115.209151 147.359342 
L 114.883695 126.415762 
L 120.316086 120.589042 
L 123.835479 123.145323 
z
" style="fill:#0000ff;fill-opacity:0.4;stroke:#000000;stroke-opacity:0.4;"/>
    <path clip-path="url(#p14cfb01061)" d="M 139.62805 143.607599 
L 132.094379 160.210923 
L 127.581926 146.329458 
L 123.835479 123.145323 
L 132.649162 120.436409 
L 137.198049 124.341745 
z
" style="fill:#0000ff;fill-opacity:0.4;stroke:#000000;stroke-opacity:0.4;"/>
    <path clip-path="url(#p14cfb01061)" d="M 149.903873 146.651912 
L 143.685643 149.712448 
L 139.62805 143.607599 
L 137.198049 124.341745 
L 142.759413 109.971347 
L 150.548912 128.019608 
z
" style="fill:#0000ff;fill-opacity:0.4;stroke:#000000;stroke-opacity:0.4;"/>
    <path clip-path="url(#p14cfb01061)" d="M 161.664134 141.174261 
L 157.627082 156.583976 
L 149.903873 146.651912 
L 150.548912 128.019608 
L 154.098578 115.159533 
L 160.096287 119.717311 
z
" style="fill:#0000ff;fill-opacity:0.4;stroke:#000000;stroke-opacity:0.4;"/>
    <path clip-path="url(#p14cfb01061)" d="M 174.599458 141.305207 
L 168.055697 156.095863 
L 161.664134 141.174261 
L 160.096287 119.717311 
L 168.122827 119.475931 
L 172.583437 120.943489 
z
" style="fill:#0000ff;fill-opacity:0.4;stroke:#000000;stroke-opacity:0.4;"/>
    <path clip-path="url(#p14cfb01061)" d="M 185.454098 146.994136 
L 180.525113 151.448038 
L 174.599458 141.305207 
L 172.583437 120.943489 
L 179.238944 107.99974 
L 187.23522 124.891651 
z
" style="fill:#0000ff;fill-opacity:0.4;stroke:#000000;stroke-opacity:0.4;"/>
    <path clip-path="url(#p14cfb01061)" d="M 198.998157 147.239971 
L 194.715166 158.67689 
L 185.454098 146.994136 
L 187.23522 124.891651 
L 193.835782 119.470053 
L 196.837065 126.903916 
z
" style="fill:#0000ff;fill-opacity:0.4;stroke:#000000;stroke-opacity:0.4;"/>
    <path clip-path="url(#p14cfb01061)" d="M 211.901471 144.001597 
L 206.705304 153.110524 
L 198.998157 147.239971 
L 196.837065 126.903916 
L 204.43212 114.747874 
L 210.275094 118.175367 
z
" style="fill:#0000ff;fill-opacity:0.4;stroke:#000000;stroke-opacity:0.4;"/>
    <path clip-path="url(#p14cfb01061)" d="M 223.626217 140.505068 
L 218.057336 158.750881 
L 211.901471 144.001597 
L 210.275094 118.175367 
L 215.800673 118.383165 
L 224.840467 125.262944 
z
" style="fill:#0000ff;fill-opacity:0.4;stroke:#000000;stroke-opacity:0.4;"/>
    <path clip-path="url(#p14cfb01061)" d="M 237.518949 139.538666 
L 231.902381 151.532574 
L 223.626217 140.505068 
L 224.840467 125.262944 
L 229.008776 116.777756 
L 236.136543 127.848975 
z
" style="fill:#0000ff;fill-opacity:0.4;stroke:#000000;stroke-opacity:0.4;"/>
    <path clip-path="url(#p14cfb01061)" d="M 248.116241 143.807909 
L 243.632919 150.244149 
L 237.518949 139.538666 
L 236.136543 127.848975 
L 240.601318 117.552705 
L 247.913866 128.823778 
z
" style="fill:#0000ff;fill-opacity:0.4;stroke:#000000;stroke-opacity:0.4;"/>
    <path clip-path="url(#p14cfb01061)" d="M 260.206791 144.950133 
L 254.801401 156.660482 
L 248.116241 143.807909 
L 247.913866 128.823778 
L 255.01568 108.955466 
L 261.162546 121.602771 
z
" style="fill:#0000ff;fill-opacity:0.4;stroke:#000000;stroke-opacity:0.4;"/>
    <path clip-path="url(#p14cfb01061)" d="M 274.10996 137.739914 
L 265.12499 149.809949 
L 260.206791 144.950133 
L 261.162546 121.602771 
L 264.709845 106.966642 
L 270.410277 122.210779 
z
" style="fill:#0000ff;fill-opacity:0.4;stroke:#000000;stroke-opacity:0.4;"/>
    <path clip-path="url(#p14cfb01061)" d="M 283.971595 142.773081 
L 277.559334 148.424 
L 274.10996 137.739914 
L 270.410277 122.210779 
L 277.373375 113.301641 
L 283.367171 125.039088 
z
" style="fill:#0000ff;fill-opacity:0.4;stroke:#000000;stroke-opacity:0.4;"/>
    <path clip-path="url(#p14cfb01061)" d="M 295.24386 142.742706 
L 289.160193 152.801439 
L 283.971595 142.773081 
L 283.367171 125.039088 
L 290.961455 106.051203 
L 297.518957 125.648398 
z
" style="fill:#0000ff;fill-opacity:0.4;stroke:#000000;stroke-opacity:0.4;"/>
    <path clip-path="url(#p14cfb01061)" d="M 309.674269 139.418737 
L 302.096539 158.122905 
L 295.24386 142.742706 
L 297.518957 125.648398 
L 303.622022 107.720923 
L 307.661326 126.774525 
z
" style="fill:#0000ff;fill-opacity:0.4;stroke:#000000;stroke-opacity:0.4;"/>
    <path clip-path="url(#p14cfb01061)" d="M 321.354614 140.475305 
L 314.709995 147.960105 
L 309.674269 139.418737 
L 307.661326 126.774525 
L 316.24779 117.352954 
L 322.24632 127.200383 
z
" style="fill:#0000ff;fill-opacity:0.4;stroke:#000000;stroke-opacity:0.4;"/>
    <path clip-path="url(#p14cfb01061)" d="M 332.527022 138.451801 
L 326.407213 157.441053 
L 321.354614 140.475305 
L 322.24632 127.200383 
L 325.208355 114.698318 
L 334.134265 124.972617 
z
" style="fill:#0000ff;fill-opacity:0.4;stroke:#000000;stroke-opacity:0.4;"/>
    <path clip-path="url(#p14cfb01061)" d="M 344.557247 135.787183 
L 340.290561 155.053455 
L 332.527022 138.451801 
L 334.134265 124.972617 
L 343.622379 108.247778 
L 350.804165 116.790323 
z
" style="fill:#0000ff;fill-opacity:0.4;stroke:#000000;stroke-opacity:0.4;"/>
    <path clip-path="url(#p14cfb01061)" d="M 363.106282 131.423367 
L 350.042982 156.342553 
L 344.557247 135.787183 
L 350.804165 116.790323 
L 348.496183 114.045039 
L 353.743532 120.286622 
z
" style="fill:#0000ff;fill-opacity:0.4;stroke:#000000;stroke-opacity:0.4;"/>
    <path clip-path="url(#p14cfb01061)" d="M 109.22049 119.734853 
L 98.059242 130.591997 
L 98.188917 118.2512 
L 98.427316 95.56358 
L 98.522169 86.536734 
L 107.935765 94.863178 
z
" style="fill:#0000ff;fill-opacity:0.4;stroke:#000000;stroke-opacity:0.4;"/>
    <path clip-path="url(#p14cfb01061)" d="M 120.316086 120.589042 
L 114.883695 126.415762 
L 109.22049 119.734853 
L 107.935765 94.863178 
L 111.709248 80.093206 
L 119.458659 91.231289 
z
" style="fill:#0000ff;fill-opacity:0.4;stroke:#000000;stroke-opacity:0.4;"/>
    <path clip-path="url(#p14cfb01061)" d="M 132.649162 120.436409 
L 123.835479 123.145323 
L 120.316086 120.589042 
L 119.458659 91.231289 
L 126.876143 82.536865 
L 132.538255 88.81694 
z
" style="fill:#0000ff;fill-opacity:0.4;stroke:#000000;stroke-opacity:0.4;"/>
    <path clip-path="url(#p14cfb01061)" d="M 142.759413 109.971347 
L 137.198049 124.341745 
L 132.649162 120.436409 
L 132.538255 88.81694 
L 138.742972 79.480195 
L 145.04995 98.903398 
z
" style="fill:#0000ff;fill-opacity:0.4;stroke:#000000;stroke-opacity:0.4;"/>
    <path clip-path="url(#p14cfb01061)" d="M 154.098578 115.159533 
L 150.548912 128.019608 
L 142.759413 109.971347 
L 145.04995 98.903398 
L 149.744878 84.13186 
L 157.228882 95.46824 
z
" style="fill:#0000ff;fill-opacity:0.4;stroke:#000000;stroke-opacity:0.4;"/>
    <path clip-path="url(#p14cfb01061)" d="M 168.122827 119.475931 
L 160.096287 119.717311 
L 154.098578 115.159533 
L 157.228882 95.46824 
L 161.519541 80.182908 
L 167.562954 98.560593 
z
" style="fill:#0000ff;fill-opacity:0.4;stroke:#000000;stroke-opacity:0.4;"/>
    <path clip-path="url(#p14cfb01061)" d="M 179.238944 107.99974 
L 172.583437 120.943489 
L 168.122827 119.475931 
L 167.562954 98.560593 
L 173.900825 79.640016 
L 179.479186 90.419149 
z
" style="fill:#0000ff;fill-opacity:0.4;stroke:#000000;stroke-opacity:0.4;"/>
    <path clip-path="url(#p14cfb01061)" d="M 193.835782 119.470053 
L 187.23522 124.891651 
L 179.238944 107.99974 
L 179.479186 90.419149 
L 184.565011 78.862389 
L 193.001155 99.223402 
z
" style="fill:#0000ff;fill-opacity:0.4;stroke:#000000;stroke-opacity:0.4;"/>
    <path clip-path="url(#p14cfb01061)" d="M 204.43212 114.747874 
L 196.837065 126.903916 
L 193.835782 119.470053 
L 193.001155 99.223402 
L 199.159288 89.411801 
L 204.133541 92.159134 
z
" style="fill:#0000ff;fill-opacity:0.4;stroke:#000000;stroke-opacity:0.4;"/>
    <path clip-path="url(#p14cfb01061)" d="M 215.800673 118.383165 
L 210.275094 118.175367 
L 204.43212 114.747874 
L 204.133541 92.159134 
L 211.119466 80.604466 
L 217.400577 89.070861 
z
" style="fill:#0000ff;fill-opacity:0.4;stroke:#000000;stroke-opacity:0.4;"/>
    <path clip-path="url(#p14cfb01061)" d="M 229.008776 116.777756 
L 224.840467 125.262944 
L 215.800673 118.383165 
L 217.400577 89.070861 
L 223.571484 86.834589 
L 227.434781 95.438983 
z
" style="fill:#0000ff;fill-opacity:0.4;stroke:#000000;stroke-opacity:0.4;"/>
    <path clip-path="url(#p14cfb01061)" d="M 240.601318 117.552705 
L 236.136543 127.848975 
L 229.008776 116.777756 
L 227.434781 95.438983 
L 232.951969 81.800954 
L 240.960877 94.659012 
z
" style="fill:#0000ff;fill-opacity:0.4;stroke:#000000;stroke-opacity:0.4;"/>
    <path clip-path="url(#p14cfb01061)" d="M 255.01568 108.955466 
L 247.913866 128.823778 
L 240.601318 117.552705 
L 240.960877 94.659012 
L 247.386514 85.364253 
L 253.823408 96.011764 
z
" style="fill:#0000ff;fill-opacity:0.4;stroke:#000000;stroke-opacity:0.4;"/>
    <path clip-path="url(#p14cfb01061)" d="M 264.709845 106.966642 
L 261.162546 121.602771 
L 255.01568 108.955466 
L 253.823408 96.011764 
L 258.067992 87.43703 
L 263.317475 90.885018 
z
" style="fill:#0000ff;fill-opacity:0.4;stroke:#000000;stroke-opacity:0.4;"/>
    <path clip-path="url(#p14cfb01061)" d="M 277.373375 113.301641 
L 270.410277 122.210779 
L 264.709845 106.966642 
L 263.317475 90.885018 
L 275.378846 67.501512 
L 286.363249 71.669552 
z
" style="fill:#0000ff;fill-opacity:0.4;stroke:#000000;stroke-opacity:0.4;"/>
    <path clip-path="url(#p14cfb01061)" d="M 290.961455 106.051203 
L 283.367171 125.039088 
L 277.373375 113.301641 
L 286.363249 71.669552 
L 289.015622 72.774707 
L 295.327064 75.404475 
z
" style="fill:#0000ff;fill-opacity:0.4;stroke:#000000;stroke-opacity:0.4;"/>
    <path clip-path="url(#p14cfb01061)" d="M 303.622022 107.720923 
L 297.518957 125.648398 
L 290.961455 106.051203 
L 295.327064 75.404475 
L 296.429891 75.863986 
L 305.848852 79.788553 
z
" style="fill:#0000ff;fill-opacity:0.4;stroke:#000000;stroke-opacity:0.4;"/>
    <path clip-path="url(#p14cfb01061)" d="M 316.24779 117.352954 
L 307.661326 126.774525 
L 303.622022 107.720923 
L 305.848852 79.788553 
L 310.938326 81.909167 
L 316.35822 84.167456 
z
" style="fill:#0000ff;fill-opacity:0.4;stroke:#000000;stroke-opacity:0.4;"/>
    <path clip-path="url(#p14cfb01061)" d="M 325.208355 114.698318 
L 322.24632 127.200383 
L 316.24779 117.352954 
L 316.35822 84.167456 
L 326.114598 88.169898 
L 331.154593 93.417674 
z
" style="fill:#0000ff;fill-opacity:0.4;stroke:#000000;stroke-opacity:0.4;"/>
    <path clip-path="url(#p14cfb01061)" d="M 343.622379 108.247778 
L 334.134265 124.972617 
L 325.208355 114.698318 
L 331.154593 93.417674 
L 332.788963 95.219842 
L 337.376184 101.41259 
z
" style="fill:#0000ff;fill-opacity:0.4;stroke:#000000;stroke-opacity:0.4;"/>
    <path clip-path="url(#p14cfb01061)" d="M 111.709248 80.093206 
L 107.935765 94.863178 
L 98.522169 86.536734 
L 98.690569 70.510658 
L 107.528146 67.065884 
L 111.794553 64.689922 
z
" style="fill:#0000ff;fill-opacity:0.4;stroke:#000000;stroke-opacity:0.4;"/>
    <path clip-path="url(#p14cfb01061)" d="M 126.876143 82.536865 
L 119.458659 91.231289 
L 111.709248 80.093206 
L 111.794553 64.689922 
L 120.323322 63.139237 
L 126.902302 61.943059 
z
" style="fill:#0000ff;fill-opacity:0.4;stroke:#000000;stroke-opacity:0.4;"/>
    <path clip-path="url(#p14cfb01061)" d="M 138.742972 79.480195 
L 132.538255 88.81694 
L 126.876143 82.536865 
L 126.902302 61.943059 
L 132.195081 60.980736 
L 137.969692 59.930806 
z
" style="fill:#0000ff;fill-opacity:0.4;stroke:#000000;stroke-opacity:0.4;"/>
    <path clip-path="url(#p14cfb01061)" d="M 149.744878 84.13186 
L 145.04995 98.903398 
L 138.742972 79.480195 
L 137.969692 59.930806 
L 143.689215 58.890893 
L 145.925874 58.484228 
z
" style="fill:#0000ff;fill-opacity:0.4;stroke:#000000;stroke-opacity:0.4;"/>
    <path clip-path="url(#p14cfb01061)" d="M 161.519541 80.182908 
L 157.228882 95.46824 
L 149.744878 84.13186 
L 145.925874 58.484228 
L 156.421691 56.575897 
L 159.577726 56.002073 
z
" style="fill:#0000ff;fill-opacity:0.4;stroke:#000000;stroke-opacity:0.4;"/>
    <path clip-path="url(#p14cfb01061)" d="M 173.900825 79.640016 
L 167.562954 98.560593 
L 161.519541 80.182908 
L 159.577726 56.002073 
L 168.615953 54.358759 
L 172.533659 53.766907 
z
" style="fill:#0000ff;fill-opacity:0.4;stroke:#000000;stroke-opacity:0.4;"/>
    <path clip-path="url(#p14cfb01061)" d="M 184.565011 78.862389 
L 179.479186 90.419149 
L 173.900825 79.640016 
L 172.533659 53.766907 
L 176.213431 53.568 
L 184.480185 53.812213 
z
" style="fill:#0000ff;fill-opacity:0.4;stroke:#000000;stroke-opacity:0.4;"/>
    <path clip-path="url(#p14cfb01061)" d="M 199.159288 89.411801 
L 193.001155 99.223402 
L 184.565011 78.862389 
L 184.480185 53.812213 
L 192.637527 54.072001 
L 199.579464 54.293082 
z
" style="fill:#0000ff;fill-opacity:0.4;stroke:#000000;stroke-opacity:0.4;"/>
    <path clip-path="url(#p14cfb01061)" d="M 211.119466 80.604466 
L 204.133541 92.159134 
L 199.159288 89.411801 
L 199.579464 54.293082 
L 204.020479 54.434516 
L 211.869574 54.684487 
z
" style="fill:#0000ff;fill-opacity:0.4;stroke:#000000;stroke-opacity:0.4;"/>
    <path clip-path="url(#p14cfb01061)" d="M 223.571484 86.834589 
L 217.400577 89.070861 
L 211.119466 80.604466 
L 211.869574 54.684487 
L 215.883684 54.812325 
L 223.616366 55.058588 
z
" style="fill:#0000ff;fill-opacity:0.4;stroke:#000000;stroke-opacity:0.4;"/>
    <path clip-path="url(#p14cfb01061)" d="M 232.951969 81.800954 
L 227.434781 95.438983 
L 223.571484 86.834589 
L 223.616366 55.058588 
L 229.693577 55.25213 
L 235.565206 55.439125 
z
" style="fill:#0000ff;fill-opacity:0.4;stroke:#000000;stroke-opacity:0.4;"/>
    <path clip-path="url(#p14cfb01061)" d="M 247.386514 85.364253 
L 240.960877 94.659012 
L 232.951969 81.800954 
L 235.565206 55.439125 
L 239.217267 56.348875 
L 248.453268 59.197361 
z
" style="fill:#0000ff;fill-opacity:0.4;stroke:#000000;stroke-opacity:0.4;"/>
    <path clip-path="url(#p14cfb01061)" d="M 258.067992 87.43703 
L 253.823408 96.011764 
L 247.386514 85.364253 
L 248.453268 59.197361 
L 250.025433 59.682235 
L 259.053136 62.46648 
z
" style="fill:#0000ff;fill-opacity:0.4;stroke:#000000;stroke-opacity:0.4;"/>
    <path clip-path="url(#p14cfb01061)" d="M 275.378846 67.501512 
L 263.317475 90.885018 
L 258.067992 87.43703 
L 259.053136 62.46648 
L 262.369892 63.489405 
L 267.748651 65.148274 
z
" style="fill:#0000ff;fill-opacity:0.4;stroke:#000000;stroke-opacity:0.4;"/>
   </g>
   <g id="matplotlib.axis_1">
    <g id="xtick_1">
     <g id="line2d_1">
      <defs>
       <path d="M 0 0 
L 0 3.5 
" id="mccfbd914e4" style="stroke:#000000;stroke-width:0.8;"/>
      </defs>
      <g>
       <use style="stroke:#000000;stroke-width:0.8;" x="83.5924" xlink:href="#mccfbd914e4" y="307.584"/>
      </g>
     </g>
     <g id="text_1">
      <!-- 0 -->
      <defs>
       <path d="M 31.78125 66.40625 
Q 24.171875 66.40625 20.328125 58.90625 
Q 16.5 51.421875 16.5 36.375 
Q 16.5 21.390625 20.328125 13.890625 
Q 24.171875 6.390625 31.78125 6.390625 
Q 39.453125 6.390625 43.28125 13.890625 
Q 47.125 21.390625 47.125 36.375 
Q 47.125 51.421875 43.28125 58.90625 
Q 39.453125 66.40625 31.78125 66.40625 
z
M 31.78125 74.21875 
Q 44.046875 74.21875 50.515625 64.515625 
Q 56.984375 54.828125 56.984375 36.375 
Q 56.984375 17.96875 50.515625 8.265625 
Q 44.046875 -1.421875 31.78125 -1.421875 
Q 19.53125 -1.421875 13.0625 8.265625 
Q 6.59375 17.96875 6.59375 36.375 
Q 6.59375 54.828125 13.0625 64.515625 
Q 19.53125 74.21875 31.78125 74.21875 
z
" id="DejaVuSans-48"/>
      </defs>
      <g transform="translate(80.41115 322.182437)scale(0.1 -0.1)">
       <use xlink:href="#DejaVuSans-48"/>
      </g>
     </g>
    </g>
    <g id="xtick_2">
     <g id="line2d_2">
      <g>
       <use style="stroke:#000000;stroke-width:0.8;" x="150.679749" xlink:href="#mccfbd914e4" y="307.584"/>
      </g>
     </g>
     <g id="text_2">
      <!-- 10 -->
      <defs>
       <path d="M 12.40625 8.296875 
L 28.515625 8.296875 
L 28.515625 63.921875 
L 10.984375 60.40625 
L 10.984375 69.390625 
L 28.421875 72.90625 
L 38.28125 72.90625 
L 38.28125 8.296875 
L 54.390625 8.296875 
L 54.390625 0 
L 12.40625 0 
z
" id="DejaVuSans-49"/>
      </defs>
      <g transform="translate(144.317249 322.182437)scale(0.1 -0.1)">
       <use xlink:href="#DejaVuSans-49"/>
       <use x="63.623047" xlink:href="#DejaVuSans-48"/>
      </g>
     </g>
    </g>
    <g id="xtick_3">
     <g id="line2d_3">
      <g>
       <use style="stroke:#000000;stroke-width:0.8;" x="217.767097" xlink:href="#mccfbd914e4" y="307.584"/>
      </g>
     </g>
     <g id="text_3">
      <!-- 20 -->
      <defs>
       <path d="M 19.1875 8.296875 
L 53.609375 8.296875 
L 53.609375 0 
L 7.328125 0 
L 7.328125 8.296875 
Q 12.9375 14.109375 22.625 23.890625 
Q 32.328125 33.6875 34.8125 36.53125 
Q 39.546875 41.84375 41.421875 45.53125 
Q 43.3125 49.21875 43.3125 52.78125 
Q 43.3125 58.59375 39.234375 62.25 
Q 35.15625 65.921875 28.609375 65.921875 
Q 23.96875 65.921875 18.8125 64.3125 
Q 13.671875 62.703125 7.8125 59.421875 
L 7.8125 69.390625 
Q 13.765625 71.78125 18.9375 73 
Q 24.125 74.21875 28.421875 74.21875 
Q 39.75 74.21875 46.484375 68.546875 
Q 53.21875 62.890625 53.21875 53.421875 
Q 53.21875 48.921875 51.53125 44.890625 
Q 49.859375 40.875 45.40625 35.40625 
Q 44.1875 33.984375 37.640625 27.21875 
Q 31.109375 20.453125 19.1875 8.296875 
z
" id="DejaVuSans-50"/>
      </defs>
      <g transform="translate(211.404597 322.182437)scale(0.1 -0.1)">
       <use xlink:href="#DejaVuSans-50"/>
       <use x="63.623047" xlink:href="#DejaVuSans-48"/>
      </g>
     </g>
    </g>
    <g id="xtick_4">
     <g id="line2d_4">
      <g>
       <use style="stroke:#000000;stroke-width:0.8;" x="284.854445" xlink:href="#mccfbd914e4" y="307.584"/>
      </g>
     </g>
     <g id="text_4">
      <!-- 30 -->
      <defs>
       <path d="M 40.578125 39.3125 
Q 47.65625 37.796875 51.625 33 
Q 55.609375 28.21875 55.609375 21.1875 
Q 55.609375 10.40625 48.1875 4.484375 
Q 40.765625 -1.421875 27.09375 -1.421875 
Q 22.515625 -1.421875 17.65625 -0.515625 
Q 12.796875 0.390625 7.625 2.203125 
L 7.625 11.71875 
Q 11.71875 9.328125 16.59375 8.109375 
Q 21.484375 6.890625 26.8125 6.890625 
Q 36.078125 6.890625 40.9375 10.546875 
Q 45.796875 14.203125 45.796875 21.1875 
Q 45.796875 27.640625 41.28125 31.265625 
Q 36.765625 34.90625 28.71875 34.90625 
L 20.21875 34.90625 
L 20.21875 43.015625 
L 29.109375 43.015625 
Q 36.375 43.015625 40.234375 45.921875 
Q 44.09375 48.828125 44.09375 54.296875 
Q 44.09375 59.90625 40.109375 62.90625 
Q 36.140625 65.921875 28.71875 65.921875 
Q 24.65625 65.921875 20.015625 65.03125 
Q 15.375 64.15625 9.8125 62.3125 
L 9.8125 71.09375 
Q 15.4375 72.65625 20.34375 73.4375 
Q 25.25 74.21875 29.59375 74.21875 
Q 40.828125 74.21875 47.359375 69.109375 
Q 53.90625 64.015625 53.90625 55.328125 
Q 53.90625 49.265625 50.4375 45.09375 
Q 46.96875 40.921875 40.578125 39.3125 
z
" id="DejaVuSans-51"/>
      </defs>
      <g transform="translate(278.491945 322.182437)scale(0.1 -0.1)">
       <use xlink:href="#DejaVuSans-51"/>
       <use x="63.623047" xlink:href="#DejaVuSans-48"/>
      </g>
     </g>
    </g>
    <g id="xtick_5">
     <g id="line2d_5">
      <g>
       <use style="stroke:#000000;stroke-width:0.8;" x="351.941793" xlink:href="#mccfbd914e4" y="307.584"/>
      </g>
     </g>
     <g id="text_5">
      <!-- 40 -->
      <defs>
       <path d="M 37.796875 64.3125 
L 12.890625 25.390625 
L 37.796875 25.390625 
z
M 35.203125 72.90625 
L 47.609375 72.90625 
L 47.609375 25.390625 
L 58.015625 25.390625 
L 58.015625 17.1875 
L 47.609375 17.1875 
L 47.609375 0 
L 37.796875 0 
L 37.796875 17.1875 
L 4.890625 17.1875 
L 4.890625 26.703125 
z
" id="DejaVuSans-52"/>
      </defs>
      <g transform="translate(345.579293 322.182437)scale(0.1 -0.1)">
       <use xlink:href="#DejaVuSans-52"/>
       <use x="63.623047" xlink:href="#DejaVuSans-48"/>
      </g>
     </g>
    </g>
   </g>
   <g id="matplotlib.axis_2">
    <g id="ytick_1">
     <g id="line2d_6">
      <defs>
       <path d="M 0 0 
L -3.5 0 
" id="m8effd0f920" style="stroke:#000000;stroke-width:0.8;"/>
      </defs>
      <g>
       <use style="stroke:#000000;stroke-width:0.8;" x="82.539849" xlink:href="#m8effd0f920" y="280.700952"/>
      </g>
     </g>
     <g id="text_6">
      <!-- 5 -->
      <defs>
       <path d="M 10.796875 72.90625 
L 49.515625 72.90625 
L 49.515625 64.59375 
L 19.828125 64.59375 
L 19.828125 46.734375 
Q 21.96875 47.46875 24.109375 47.828125 
Q 26.265625 48.1875 28.421875 48.1875 
Q 40.625 48.1875 47.75 41.5 
Q 54.890625 34.8125 54.890625 23.390625 
Q 54.890625 11.625 47.5625 5.09375 
Q 40.234375 -1.421875 26.90625 -1.421875 
Q 22.3125 -1.421875 17.546875 -0.640625 
Q 12.796875 0.140625 7.71875 1.703125 
L 7.71875 11.625 
Q 12.109375 9.234375 16.796875 8.0625 
Q 21.484375 6.890625 26.703125 6.890625 
Q 35.15625 6.890625 40.078125 11.328125 
Q 45.015625 15.765625 45.015625 23.390625 
Q 45.015625 31 40.078125 35.4375 
Q 35.15625 39.890625 26.703125 39.890625 
Q 22.75 39.890625 18.8125 39.015625 
Q 14.890625 38.140625 10.796875 36.28125 
z
" id="DejaVuSans-53"/>
      </defs>
      <g transform="translate(69.177349 284.500171)scale(0.1 -0.1)">
       <use xlink:href="#DejaVuSans-53"/>
      </g>
     </g>
    </g>
    <g id="ytick_2">
     <g id="line2d_7">
      <g>
       <use style="stroke:#000000;stroke-width:0.8;" x="82.539849" xlink:href="#m8effd0f920" y="247.157278"/>
      </g>
     </g>
     <g id="text_7">
      <!-- 10 -->
      <g transform="translate(62.814849 250.956497)scale(0.1 -0.1)">
       <use xlink:href="#DejaVuSans-49"/>
       <use x="63.623047" xlink:href="#DejaVuSans-48"/>
      </g>
     </g>
    </g>
    <g id="ytick_3">
     <g id="line2d_8">
      <g>
       <use style="stroke:#000000;stroke-width:0.8;" x="82.539849" xlink:href="#m8effd0f920" y="213.613604"/>
      </g>
     </g>
     <g id="text_8">
      <!-- 15 -->
      <g transform="translate(62.814849 217.412823)scale(0.1 -0.1)">
       <use xlink:href="#DejaVuSans-49"/>
       <use x="63.623047" xlink:href="#DejaVuSans-53"/>
      </g>
     </g>
    </g>
    <g id="ytick_4">
     <g id="line2d_9">
      <g>
       <use style="stroke:#000000;stroke-width:0.8;" x="82.539849" xlink:href="#m8effd0f920" y="180.06993"/>
      </g>
     </g>
     <g id="text_9">
      <!-- 20 -->
      <g transform="translate(62.814849 183.869149)scale(0.1 -0.1)">
       <use xlink:href="#DejaVuSans-50"/>
       <use x="63.623047" xlink:href="#DejaVuSans-48"/>
      </g>
     </g>
    </g>
    <g id="ytick_5">
     <g id="line2d_10">
      <g>
       <use style="stroke:#000000;stroke-width:0.8;" x="82.539849" xlink:href="#m8effd0f920" y="146.526256"/>
      </g>
     </g>
     <g id="text_10">
      <!-- 25 -->
      <g transform="translate(62.814849 150.325475)scale(0.1 -0.1)">
       <use xlink:href="#DejaVuSans-50"/>
       <use x="63.623047" xlink:href="#DejaVuSans-53"/>
      </g>
     </g>
    </g>
    <g id="ytick_6">
     <g id="line2d_11">
      <g>
       <use style="stroke:#000000;stroke-width:0.8;" x="82.539849" xlink:href="#m8effd0f920" y="112.982582"/>
      </g>
     </g>
     <g id="text_11">
      <!-- 30 -->
      <g transform="translate(62.814849 116.781801)scale(0.1 -0.1)">
       <use xlink:href="#DejaVuSans-51"/>
       <use x="63.623047" xlink:href="#DejaVuSans-48"/>
      </g>
     </g>
    </g>
    <g id="ytick_7">
     <g id="line2d_12">
      <g>
       <use style="stroke:#000000;stroke-width:0.8;" x="82.539849" xlink:href="#m8effd0f920" y="79.438908"/>
      </g>
     </g>
     <g id="text_12">
      <!-- 35 -->
      <g transform="translate(62.814849 83.238126)scale(0.1 -0.1)">
       <use xlink:href="#DejaVuSans-51"/>
       <use x="63.623047" xlink:href="#DejaVuSans-53"/>
      </g>
     </g>
    </g>
    <g id="ytick_8">
     <g id="line2d_13">
      <g>
       <use style="stroke:#000000;stroke-width:0.8;" x="82.539849" xlink:href="#m8effd0f920" y="45.895234"/>
      </g>
     </g>
     <g id="text_13">
      <!-- 40 -->
      <g transform="translate(62.814849 49.694452)scale(0.1 -0.1)">
       <use xlink:href="#DejaVuSans-52"/>
       <use x="63.623047" xlink:href="#DejaVuSans-48"/>
      </g>
     </g>
    </g>
   </g>
   <g id="patch_3">
    <path d="M 82.539849 307.584 
L 82.539849 41.472 
" style="fill:none;stroke:#000000;stroke-linecap:square;stroke-linejoin:miter;stroke-width:0.8;"/>
   </g>
   <g id="patch_4">
    <path d="M 389.780151 307.584 
L 389.780151 41.472 
" style="fill:none;stroke:#000000;stroke-linecap:square;stroke-linejoin:miter;stroke-width:0.8;"/>
   </g>
   <g id="patch_5">
    <path d="M 82.539849 307.584 
L 389.780151 307.584 
" style="fill:none;stroke:#000000;stroke-linecap:square;stroke-linejoin:miter;stroke-width:0.8;"/>
   </g>
   <g id="patch_6">
    <path d="M 82.539849 41.472 
L 389.780151 41.472 
" style="fill:none;stroke:#000000;stroke-linecap:square;stroke-linejoin:miter;stroke-width:0.8;"/>
   </g>
  </g>
  <g id="text_14">
   <!-- hexgrid -->
   <defs>
    <path d="M 54.890625 33.015625 
L 54.890625 0 
L 45.90625 0 
L 45.90625 32.71875 
Q 45.90625 40.484375 42.875 44.328125 
Q 39.84375 48.1875 33.796875 48.1875 
Q 26.515625 48.1875 22.3125 43.546875 
Q 18.109375 38.921875 18.109375 30.90625 
L 18.109375 0 
L 9.078125 0 
L 9.078125 75.984375 
L 18.109375 75.984375 
L 18.109375 46.1875 
Q 21.34375 51.125 25.703125 53.5625 
Q 30.078125 56 35.796875 56 
Q 45.21875 56 50.046875 50.171875 
Q 54.890625 44.34375 54.890625 33.015625 
z
" id="DejaVuSans-104"/>
    <path d="M 56.203125 29.59375 
L 56.203125 25.203125 
L 14.890625 25.203125 
Q 15.484375 15.921875 20.484375 11.0625 
Q 25.484375 6.203125 34.421875 6.203125 
Q 39.59375 6.203125 44.453125 7.46875 
Q 49.3125 8.734375 54.109375 11.28125 
L 54.109375 2.78125 
Q 49.265625 0.734375 44.1875 -0.34375 
Q 39.109375 -1.421875 33.890625 -1.421875 
Q 20.796875 -1.421875 13.15625 6.1875 
Q 5.515625 13.8125 5.515625 26.8125 
Q 5.515625 40.234375 12.765625 48.109375 
Q 20.015625 56 32.328125 56 
Q 43.359375 56 49.78125 48.890625 
Q 56.203125 41.796875 56.203125 29.59375 
z
M 47.21875 32.234375 
Q 47.125 39.59375 43.09375 43.984375 
Q 39.0625 48.390625 32.421875 48.390625 
Q 24.90625 48.390625 20.390625 44.140625 
Q 15.875 39.890625 15.1875 32.171875 
z
" id="DejaVuSans-101"/>
    <path d="M 54.890625 54.6875 
L 35.109375 28.078125 
L 55.90625 0 
L 45.3125 0 
L 29.390625 21.484375 
L 13.484375 0 
L 2.875 0 
L 24.125 28.609375 
L 4.6875 54.6875 
L 15.28125 54.6875 
L 29.78125 35.203125 
L 44.28125 54.6875 
z
" id="DejaVuSans-120"/>
    <path d="M 45.40625 27.984375 
Q 45.40625 37.75 41.375 43.109375 
Q 37.359375 48.484375 30.078125 48.484375 
Q 22.859375 48.484375 18.828125 43.109375 
Q 14.796875 37.75 14.796875 27.984375 
Q 14.796875 18.265625 18.828125 12.890625 
Q 22.859375 7.515625 30.078125 7.515625 
Q 37.359375 7.515625 41.375 12.890625 
Q 45.40625 18.265625 45.40625 27.984375 
z
M 54.390625 6.78125 
Q 54.390625 -7.171875 48.1875 -13.984375 
Q 42 -20.796875 29.203125 -20.796875 
Q 24.46875 -20.796875 20.265625 -20.09375 
Q 16.0625 -19.390625 12.109375 -17.921875 
L 12.109375 -9.1875 
Q 16.0625 -11.328125 19.921875 -12.34375 
Q 23.78125 -13.375 27.78125 -13.375 
Q 36.625 -13.375 41.015625 -8.765625 
Q 45.40625 -4.15625 45.40625 5.171875 
L 45.40625 9.625 
Q 42.625 4.78125 38.28125 2.390625 
Q 33.9375 0 27.875 0 
Q 17.828125 0 11.671875 7.65625 
Q 5.515625 15.328125 5.515625 27.984375 
Q 5.515625 40.671875 11.671875 48.328125 
Q 17.828125 56 27.875 56 
Q 33.9375 56 38.28125 53.609375 
Q 42.625 51.21875 45.40625 46.390625 
L 45.40625 54.6875 
L 54.390625 54.6875 
z
" id="DejaVuSans-103"/>
    <path d="M 41.109375 46.296875 
Q 39.59375 47.171875 37.8125 47.578125 
Q 36.03125 48 33.890625 48 
Q 26.265625 48 22.1875 43.046875 
Q 18.109375 38.09375 18.109375 28.8125 
L 18.109375 0 
L 9.078125 0 
L 9.078125 54.6875 
L 18.109375 54.6875 
L 18.109375 46.1875 
Q 20.953125 51.171875 25.484375 53.578125 
Q 30.03125 56 36.53125 56 
Q 37.453125 56 38.578125 55.875 
Q 39.703125 55.765625 41.0625 55.515625 
z
" id="DejaVuSans-114"/>
    <path d="M 9.421875 54.6875 
L 18.40625 54.6875 
L 18.40625 0 
L 9.421875 0 
z
M 9.421875 75.984375 
L 18.40625 75.984375 
L 18.40625 64.59375 
L 9.421875 64.59375 
z
" id="DejaVuSans-105"/>
    <path d="M 45.40625 46.390625 
L 45.40625 75.984375 
L 54.390625 75.984375 
L 54.390625 0 
L 45.40625 0 
L 45.40625 8.203125 
Q 42.578125 3.328125 38.25 0.953125 
Q 33.9375 -1.421875 27.875 -1.421875 
Q 17.96875 -1.421875 11.734375 6.484375 
Q 5.515625 14.40625 5.515625 27.296875 
Q 5.515625 40.1875 11.734375 48.09375 
Q 17.96875 56 27.875 56 
Q 33.9375 56 38.25 53.625 
Q 42.578125 51.265625 45.40625 46.390625 
z
M 14.796875 27.296875 
Q 14.796875 17.390625 18.875 11.75 
Q 22.953125 6.109375 30.078125 6.109375 
Q 37.203125 6.109375 41.296875 11.75 
Q 45.40625 17.390625 45.40625 27.296875 
Q 45.40625 37.203125 41.296875 42.84375 
Q 37.203125 48.484375 30.078125 48.484375 
Q 22.953125 48.484375 18.875 42.84375 
Q 14.796875 37.203125 14.796875 27.296875 
z
" id="DejaVuSans-100"/>
   </defs>
   <g transform="translate(200.005 19.0695)scale(0.16 -0.16)">
    <use xlink:href="#DejaVuSans-104"/>
    <use x="63.378906" xlink:href="#DejaVuSans-101"/>
    <use x="124.886719" xlink:href="#DejaVuSans-120"/>
    <use x="184.066406" xlink:href="#DejaVuSans-103"/>
    <use x="247.542969" xlink:href="#DejaVuSans-114"/>
    <use x="288.65625" xlink:href="#DejaVuSans-105"/>
    <use x="316.439453" xlink:href="#DejaVuSans-100"/>
   </g>
  </g>
 </g>
 <defs>
  <clipPath id="p14cfb01061">
   <rect height="266.112" width="307.240303" x="82.539849" y="41.472"/>
  </clipPath>
 </defs>
</svg>
